<svg width="54" height="45" viewBox="0 0 54 45" fill="none" xmlns="http://www.w3.org/2000/svg">
<g clip-path="url(#clip0_2518_141)">
<g clip-path="url(#clip1_2518_141)">
<path d="M26.7757 0C14.3131 0 4.21094 10.0731 4.21094 22.5H9.85213C9.85213 13.18 17.4289 5.625 26.7757 5.625C36.1225 5.625 43.6992 13.18 43.6992 22.5H49.3404C49.3404 10.0731 39.2383 0 26.7757 0Z" fill="black"/>
<path d="M26.7755 11.25C20.5445 11.25 15.4932 16.2869 15.4932 22.5H38.0579C38.0579 16.2869 33.0065 11.25 26.7755 11.25Z" fill="black"/>
<path d="M21.1348 39.375C21.1348 42.4819 23.6601 45 26.776 45C29.8918 45 32.4171 42.4819 32.4171 39.375C32.4171 33.75 26.776 28.125 26.776 28.125C26.776 28.125 21.1348 33.75 21.1348 39.375Z" fill="black"/>
</g>
</g>
<defs>
<clipPath id="clip0_2518_141">
<rect width="53.5518" height="45" fill="white"/>
</clipPath>
<clipPath id="clip1_2518_141">
<rect width="45.1295" height="45" fill="white" transform="translate(4.21094)"/>
</clipPath>
</defs>
</svg>
