<svg width="49" height="45" viewBox="0 0 49 45" fill="none" xmlns="http://www.w3.org/2000/svg">
<path d="M20.6166 24.4332C19.7022 24.4414 18.793 24.2956 17.927 24.002C17.9149 24.1492 17.9149 24.2973 17.927 24.4445C17.927 25.1669 18.214 25.8596 18.7248 26.3704C19.2356 26.8812 19.9283 27.1682 20.6507 27.1682C21.373 27.1682 22.0658 26.8812 22.5765 26.3704C23.0873 25.8596 23.3743 25.1669 23.3743 24.4445C23.3864 24.2973 23.3864 24.1492 23.3743 24.002C22.4864 24.3021 21.5537 24.448 20.6166 24.4332Z" fill="black"/>
<path d="M20.6162 0C15.5436 0.0449548 10.6965 2.10246 7.14049 5.72017C3.5845 9.33788 1.61069 14.2197 1.65301 19.2923C1.65274 22.122 2.26845 24.9179 3.4574 27.4858C4.76554 29.7056 6.56654 31.5949 8.72123 33.0078C10.8759 34.4206 13.3266 35.3191 15.8839 35.6339C16.2447 35.6799 16.5892 35.812 16.8884 36.019C17.1875 36.226 17.4325 36.5019 17.6027 36.8234C17.7729 37.1449 17.8633 37.5026 17.8664 37.8664C17.8694 38.2301 17.785 38.5893 17.6202 38.9136C16.8397 40.4296 15.8754 41.8437 14.749 43.1239C15.8818 43.9203 17.1637 44.48 18.5179 44.7694C19.8721 45.0588 21.2707 45.072 22.6301 44.8082C23.9895 44.5443 25.2817 44.0089 26.4293 43.234C27.5769 42.459 28.5564 41.4605 29.309 40.2981L35.8343 30.913C38.2942 27.5407 39.6033 23.4662 39.568 19.2923C39.6103 14.2216 37.638 9.34154 34.0845 5.72415C30.5309 2.10677 25.6868 0.0479449 20.6162 0ZM8.96137 26.9751C7.64138 26.4963 6.50459 25.6159 5.71074 24.4577C4.91689 23.2995 4.5059 21.9217 4.5355 20.5179C4.5925 19.1504 5.07439 17.8347 5.91409 16.7538C6.75379 15.673 7.90955 14.8808 9.22051 14.4875C10.5315 14.0942 11.9324 14.1194 13.2284 14.5595C14.5244 14.9997 15.651 15.8328 16.4513 16.9431C16.877 17.68 17.482 18.2973 18.2102 18.7377C18.9383 19.1782 19.7659 19.4275 20.6162 19.4625C21.4652 19.4287 22.2917 19.1798 23.0182 18.7392C23.7448 18.2985 24.3474 17.6805 24.7697 16.9431C25.5722 15.8349 26.6996 15.0038 27.9957 14.5651C29.2917 14.1263 30.6922 14.1016 32.0028 14.4945C33.3135 14.8873 34.4695 15.6782 35.3106 16.7575C36.1517 17.8367 36.6361 19.1509 36.6968 20.5179C36.7264 21.9217 36.3154 23.2995 35.5216 24.4577C34.7277 25.6159 33.5909 26.4963 32.271 26.9751L26.4946 29.2448C24.6448 29.9711 22.6248 31.0151 20.6048 31.0151C18.5848 31.0151 16.5648 29.9711 14.7263 29.2448L8.96137 26.9751Z" fill="black"/>
<path d="M11.1635 23.6161C12.6928 23.6161 13.9325 22.3764 13.9325 20.8471C13.9325 19.3179 12.6928 18.0781 11.1635 18.0781C9.63426 18.0781 8.39453 19.3179 8.39453 20.8471C8.39453 22.3764 9.63426 23.6161 11.1635 23.6161Z" fill="black"/>
<path d="M30.0913 23.6161C31.6206 23.6161 32.8603 22.3764 32.8603 20.8471C32.8603 19.3179 31.6206 18.0781 30.0913 18.0781C28.562 18.0781 27.3223 19.3179 27.3223 20.8471C27.3223 22.3764 28.562 23.6161 30.0913 23.6161Z" fill="black"/>
<path d="M31.1016 41.5805C35.0465 41.5095 38.871 40.2097 42.0422 37.8622C45.2135 35.5148 47.5736 32.2367 48.7937 28.4845C48.81 28.4347 48.8141 28.3817 48.8058 28.33C48.7974 28.2783 48.7769 28.2293 48.7458 28.1871C48.7147 28.1449 48.674 28.1108 48.6271 28.0875C48.5801 28.0642 48.5283 28.0525 48.4759 28.0533H40.01C39.3724 29.4995 38.581 30.873 37.6496 32.15L31.1016 41.5805Z" fill="black"/>
<path d="M11.4353 43.1803C13.0146 41.7853 14.3494 40.1359 15.3845 38.3005C15.4111 38.2531 15.4255 38.2 15.4265 38.1458C15.4276 38.0915 15.4152 38.0379 15.3905 37.9896C15.3658 37.9413 15.3295 37.8998 15.2849 37.8689C15.2403 37.838 15.1888 37.8186 15.1349 37.8125C12.2202 37.3821 9.44563 36.2793 7.03082 34.5913C4.616 32.9032 2.62718 30.6764 1.22174 28.0869C0.335014 29.7407 -0.0827641 31.6053 0.0135776 33.4793C0.109919 35.3533 0.716715 37.1653 1.76835 38.7194C2.81999 40.2735 4.27646 41.5105 5.98027 42.2968C7.68408 43.083 9.57041 43.3885 11.4353 43.1803Z" fill="black"/>
</svg>
