<svg width="65" height="65" viewBox="0 0 65 65" fill="none" xmlns="http://www.w3.org/2000/svg">
<g clip-path="url(#clip0_2638_20)">
<g clip-path="url(#clip1_2638_20)">
<g clip-path="url(#clip2_2638_20)">
<g clip-path="url(#clip3_2638_20)">
<g clip-path="url(#clip4_2638_20)">
<g clip-path="url(#clip5_2638_20)">
<g clip-path="url(#clip6_2638_20)">
<path d="M22.4729 47.7435V18.6747H27.5825V43.8791H38.4457V47.7435H22.4729ZM41.4513 47.7435V18.6747C41.6517 18.6747 42.1097 18.6662 42.8253 18.649C43.5409 18.6375 44.3425 18.6318 45.2298 18.6318C46.1172 18.6318 47.0046 18.6232 47.892 18.606C48.7793 18.5946 49.5093 18.5889 50.0818 18.5889C53.4023 18.5889 55.927 19.2472 57.656 20.564C59.3906 21.8808 60.258 23.7414 60.258 26.1459C60.258 27.5485 59.8715 28.808 59.0987 29.9244C58.3258 31.0408 57.2524 31.9425 55.8784 32.6295C57.5959 33.2878 58.904 34.2182 59.8028 35.4204C60.7074 36.6227 61.1597 38.011 61.1597 39.5854C61.1597 42.0471 60.2294 44.028 58.3687 45.5279C56.5081 47.0336 53.6885 47.7864 49.91 47.7864C49.1371 47.7864 48.307 47.7864 47.4196 47.7864C46.5323 47.7864 45.6878 47.7807 44.8863 47.7693C44.0848 47.7521 43.3749 47.7435 42.7566 47.7435C42.144 47.7435 41.7089 47.7435 41.4513 47.7435ZM46.5609 34.7334V44.0938H50.2535C52.2 44.0938 53.5941 43.6558 54.4356 42.7799C55.283 41.9097 55.7066 40.8162 55.7066 39.4995C55.7066 38.8984 55.6121 38.3115 55.4232 37.739C55.24 37.1665 54.9194 36.6513 54.4614 36.1933C54.0034 35.7353 53.3937 35.3689 52.6323 35.0941C51.8766 34.825 50.9262 34.6905 49.7812 34.6905C49.0942 34.6905 48.4845 34.6905 47.9521 34.6905C47.4254 34.6905 46.9616 34.7048 46.5609 34.7334ZM46.5609 22.2815V31.0408H49.8671C51.6705 31.0408 52.9586 30.6257 53.7315 29.7956C54.5043 28.9655 54.8908 27.9493 54.8908 26.747C54.8908 26.2031 54.8049 25.6593 54.6332 25.1154C54.4614 24.5715 54.1666 24.0849 53.7486 23.6555C53.3364 23.2261 52.7783 22.8826 52.0741 22.625C51.3756 22.3674 50.4968 22.2386 49.4377 22.2386C48.808 22.2386 48.2555 22.2386 47.7803 22.2386C47.3109 22.2386 46.9044 22.2529 46.5609 22.2815Z" fill="white"/>
</g>
</g>
</g>
</g>
</g>
</g>
</g>
<path d="M4.02026 33.1881C4.02026 20.1417 14.5965 9.56543 27.6429 9.56543C33.4534 9.56543 38.7738 11.6632 42.8883 15.1429H40.7578C37.0768 12.463 32.5446 10.8821 27.6429 10.8819C15.3236 10.8819 5.33671 20.8687 5.33671 33.1881C5.33671 45.5074 15.3236 55.4942 27.6429 55.4942C32.5446 55.4942 37.0768 53.9133 40.7578 51.2332H42.8883C38.7738 54.7127 33.4534 56.8107 27.6429 56.8107C14.5965 56.8107 4.02026 46.2344 4.02026 33.1881Z" fill="white"/>
<defs>
<clipPath id="clip0_2638_20">
<rect width="38.6868" height="29.1976" fill="white" transform="translate(22.4729 18.5889)"/>
</clipPath>
<clipPath id="clip1_2638_20">
<rect width="38.6868" height="29.1976" fill="white" transform="translate(22.4729 18.5889)"/>
</clipPath>
<clipPath id="clip2_2638_20">
<rect width="38.6868" height="29.1976" fill="white" transform="translate(22.4729 18.5889)"/>
</clipPath>
<clipPath id="clip3_2638_20">
<rect width="38.6868" height="29.1976" fill="white" transform="translate(22.4729 18.5889)"/>
</clipPath>
<clipPath id="clip4_2638_20">
<rect width="38.6868" height="29.1976" fill="white" transform="translate(22.4729 18.5889)"/>
</clipPath>
<clipPath id="clip5_2638_20">
<rect width="38.6868" height="29.1976" fill="white" transform="translate(22.4729 18.5889)"/>
</clipPath>
<clipPath id="clip6_2638_20">
<rect width="38.6868" height="29.1976" fill="white" transform="translate(22.4729 18.5889)"/>
</clipPath>
</defs>
</svg>
