<svg width="45" height="45" viewBox="0 0 45 45" fill="none" xmlns="http://www.w3.org/2000/svg">
<path d="M22.5 0C10.074 0 0 10.074 0 22.5C0 34.926 10.074 45 22.5 45C34.926 45 45 34.926 45 22.5C45 10.074 34.926 0 22.5 0ZM30.2092 33.381H25.854L23.226 20.6542L22.4587 16.4468L21.6915 20.6542L19.0635 33.381H14.8403L8.6685 11.619H13.497L16.371 24.0802L16.9965 27.549L17.6235 24.1522L20.0812 11.619H24.8797L27.465 24.0788L28.1272 27.549L28.7992 24.2137L31.6995 11.619H36.33L30.2092 33.381Z" fill="black"/>
</svg>
