<svg width="25" height="24" viewBox="0 0 25 24" fill="none" xmlns="http://www.w3.org/2000/svg">
<path d="M18.4876 20.1795H23.5645M23.5645 20.1795L20.744 17.359M23.5645 20.1795L20.744 23M12.2824 1L9.46191 3.82051L12.2824 6.64103" stroke="black" stroke-width="1.5" stroke-linecap="round" stroke-linejoin="round"/>
<path d="M10.5897 3.8208C12.8339 3.8208 14.9861 4.71228 16.573 6.29913C18.1598 7.88597 19.0513 10.0382 19.0513 12.2823C19.0513 14.5265 18.1598 16.6787 16.573 18.2655C14.9861 19.8524 12.8339 20.7439 10.5897 20.7439H1" stroke="black" stroke-width="1.5" stroke-linecap="round" stroke-linejoin="round"/>
<path d="M6.36547 4.94873C5.07686 5.69072 4.00664 6.75931 3.26268 8.04679C2.51872 9.33426 2.12732 10.7951 2.12793 12.2821C2.12793 14.1865 2.75747 15.9442 3.82024 17.359" stroke="black" stroke-width="1.5" stroke-linecap="round" stroke-linejoin="round"/>
</svg>
