<svg width="19" height="19" viewBox="0 0 19 19" fill="none" xmlns="http://www.w3.org/2000/svg">
<path d="M3.50446 16.1506L2.1709 1.1875H16.8294L15.4941 16.1482L9.49124 17.8125L3.50446 16.1506Z" fill="#1572B6"/>
<path d="M9.5 16.5407L14.3509 15.1959L15.4921 2.41122H9.5V16.5407Z" fill="#33A9DC"/>
<path d="M9.5 7.83215H11.9284L12.0959 5.95293H9.5V4.11765H14.1016L14.0576 4.60986L13.607 9.66743H9.5V7.83215Z" fill="white"/>
<path d="M9.51136 12.5982L9.50305 12.6006L7.45936 12.0484L7.32873 10.5848H5.48633L5.74342 13.4662L9.50245 14.5101L9.51136 14.5077V12.5982Z" fill="#EBEBEB"/>
<path d="M11.7724 9.58966L11.5515 12.0472L9.50488 12.5994V14.5089L13.2669 13.4663L13.2948 13.1563L13.6136 9.58966H11.7724Z" fill="white"/>
<path d="M9.50659 4.11765V5.95293H5.07365L5.03684 5.54027L4.95312 4.60986L4.90918 4.11765H9.50659ZM9.50005 7.83215V9.66743H7.4819L7.44509 9.25477L7.36196 8.32436L7.31802 7.83215H9.50005Z" fill="#EBEBEB"/>
</svg>
