<svg width="13" height="19" viewBox="0 0 13 19" fill="none" xmlns="http://www.w3.org/2000/svg">
<path d="M3.72769 12.6123C5.41581 12.6123 6.77765 11.2342 6.77765 9.52586V6.43945H3.72769C2.03958 6.43945 0.677734 7.81757 0.677734 9.52586C0.677734 11.2342 2.03958 12.6123 3.72769 12.6123Z" fill="#0ACF83"/>
<path d="M0.677734 3.35301C0.677734 1.64472 2.03958 0.266602 3.72769 0.266602H6.77765V6.43942H3.72769C2.03958 6.43942 0.677734 5.0613 0.677734 3.35301Z" fill="#A259FF"/>
<path d="M0.677734 15.6987C0.677734 13.9904 2.03958 12.6123 3.72769 12.6123H6.77765V18.7851H3.72769C2.03958 18.7851 0.677734 17.407 0.677734 15.6987Z" fill="#F24E1E"/>
<path d="M6.77734 0.266602H9.8273C11.5154 0.266602 12.8773 1.64472 12.8773 3.35301C12.8773 5.0613 11.5154 6.43942 9.8273 6.43942H6.77734V0.266602Z" fill="#FF7262"/>
<path d="M12.8773 9.52586C12.8773 11.2342 11.5154 12.6123 9.8273 12.6123C8.13919 12.6123 6.77734 11.2342 6.77734 9.52586C6.77734 7.81757 8.13919 6.43945 9.8273 6.43945C11.5154 6.43945 12.8773 7.81757 12.8773 9.52586Z" fill="#1ABCFE"/>
</svg>
