<svg width="20" height="19" viewBox="0 0 20 19" fill="none" xmlns="http://www.w3.org/2000/svg">
<g clip-path="url(#clip0_2525_1171)">
<path d="M17.6689 13.64C17.248 14.583 17.0467 15.0046 16.5062 15.838C15.751 17.0018 14.6847 18.454 13.3664 18.464C12.1938 18.474 11.8911 17.6898 10.2998 17.7026C8.70838 17.7104 8.37687 18.4783 7.20287 18.4661C5.88459 18.454 4.87529 17.1456 4.11936 15.984C2.00574 12.7254 1.78263 8.90635 3.08895 6.87431C4.01308 5.43343 5.47566 4.58728 6.84884 4.58728C8.24737 4.58728 9.12646 5.36506 10.2829 5.36506C11.4048 5.36506 12.0882 4.58515 13.7056 4.58515C14.9289 4.58515 16.2225 5.25964 17.1467 6.42346C14.123 8.10009 14.6143 12.4704 17.6689 13.64ZM12.4781 3.28458C13.0665 2.52034 13.5128 1.442 13.3509 0.342285C12.3909 0.408524 11.2682 1.02889 10.6123 1.83231C10.0182 2.56379 9.52554 3.65068 9.71768 4.70195C10.765 4.73614 11.8489 4.10438 12.4781 3.28458Z" fill="black"/>
</g>
<defs>
<clipPath id="clip0_2525_1171">
<rect width="18.2998" height="18.5184" fill="white" transform="translate(0.823242 0.14502)"/>
</clipPath>
</defs>
</svg>
