<svg width="19" height="20" viewBox="0 0 19 20" fill="none" xmlns="http://www.w3.org/2000/svg">
<path d="M0.423567 1.64481C0.954965 0.323453 2.81304 1.32412 3.5341 1.78568C3.71082 1.90116 3.91352 2.14514 4.11613 2.23532C4.43224 2.24788 4.74808 2.27291 5.06472 2.28628C5.65863 2.42752 6.21494 2.54291 6.68294 2.81264C8.85783 4.10878 10.2736 5.42959 11.5766 7.61127C11.8551 8.07338 11.9942 8.57344 12.2216 9.0735C12.5373 9.81889 12.892 10.6013 13.2583 11.3062C13.4224 11.6403 13.5493 12.0119 13.7771 12.2941C13.866 12.4231 14.1186 12.4611 14.2696 12.5382C14.6871 12.7569 15.1928 12.9229 15.5855 13.1795C16.3187 13.6422 17.0276 14.1935 17.6721 14.7579C17.9123 14.9757 18.0759 15.2841 18.3048 15.5145V15.6308C18.1017 15.6939 17.8992 15.7585 17.6966 15.8103C17.2541 15.9253 16.8621 15.8993 16.4327 16.0144C16.1674 16.0923 15.838 16.1951 15.5598 16.2212L15.5855 16.2474C15.7492 16.7207 16.6348 17.1056 17.0398 17.3887C17.5318 17.748 17.9876 18.1837 18.3545 18.6841C18.4813 18.8118 18.608 18.928 18.7341 19.0554C18.8222 19.1844 18.847 19.3513 18.9362 19.4663V19.5053C18.8374 19.47 18.7664 19.4027 18.6991 19.3324L18.6589 19.2899C18.6188 19.2477 18.5783 19.2063 18.5321 19.1721C18.2529 18.9792 17.9757 18.7484 17.6966 18.569C17.2167 18.2609 16.6602 18.0821 16.1674 17.7728C15.8888 17.5932 15.6232 17.3887 15.3577 17.1832C15.1169 17.0032 14.8518 16.6573 14.7006 16.4007C14.6114 16.2589 14.5992 16.0923 14.4974 15.9898C14.5156 15.8185 14.6707 15.7676 14.8272 15.7258L14.8632 15.7162C14.9172 15.702 14.97 15.6878 15.0161 15.6691C15.6735 15.3866 16.4573 15.2841 17.4694 15.3098C17.4312 15.0526 16.7988 14.7322 16.5969 14.5782C16.1917 14.2827 15.7626 13.9743 15.3328 13.7052C15.105 13.5644 14.7124 13.4615 14.4601 13.3464C14.1186 13.2052 13.3597 13.064 13.1705 12.795C12.849 12.371 12.6181 11.8652 12.394 11.3542L12.333 11.2148C12.3126 11.1683 12.2922 11.1219 12.2718 11.0755C12.0069 10.4602 11.6777 9.81871 11.4121 9.18872C11.2733 8.88139 11.2095 8.61167 11.0575 8.31691C10.1347 6.50814 8.7689 4.99378 7.11299 3.92878C6.56883 3.58224 5.96206 3.26155 5.29225 3.0436C4.91265 2.92758 4.45707 2.99174 4.05264 2.90272H3.78646C3.55929 2.83794 3.36962 2.59423 3.19237 2.46574C2.80089 2.19673 2.40879 2.01611 1.94062 1.82418C1.77658 1.74719 1.30814 1.56791 1.14463 1.70905C1.04337 1.73481 0.992029 1.77348 0.967113 1.87631C0.866384 2.02975 0.954966 2.26089 1.01766 2.40239C1.20759 2.81246 1.47289 3.05616 1.71371 3.4027C1.92794 3.71002 2.19404 4.05655 2.34593 4.39071C2.67365 5.10899 2.82625 5.9048 3.12995 6.62299C3.24256 6.89308 3.4207 7.2004 3.58465 7.44402C3.72359 7.63738 3.97621 7.77718 4.05264 8.02197C4.20498 8.27859 3.82458 9.12537 3.73654 9.39429C3.40713 10.4465 3.47097 11.9092 3.8503 12.8213L3.87052 12.8694L3.89073 12.9181C4.02924 13.2522 4.17749 13.6119 4.54574 13.7053C4.5711 13.6799 4.54573 13.6932 4.59601 13.6799C4.68512 12.9739 4.71022 12.294 4.95069 11.7416C5.08964 11.3962 5.36708 11.1521 5.55728 10.8702C5.68408 10.947 5.68408 11.1786 5.75963 11.3318C5.9242 11.7293 6.10091 12.1651 6.30379 12.5638C6.72018 13.3848 7.18872 14.1808 7.71958 14.899C7.89737 15.1555 8.14963 15.4379 8.37716 15.669C8.47851 15.7584 8.592 15.8101 8.66817 15.9252H8.693V15.964C8.31367 15.8225 8.0732 15.4254 7.77066 15.1935C7.20104 14.7577 6.51891 14.1032 6.12628 13.4752C5.96206 13.1146 5.78454 12.7691 5.60756 12.4104V12.3844C5.53192 12.4869 5.55728 12.5887 5.51942 12.7437C5.3552 13.3848 5.48165 14.1162 4.91265 14.3468C4.26767 14.6169 3.78655 13.911 3.58465 13.5902C2.93948 12.5255 2.76277 10.7293 3.21773 9.27934C3.31881 8.95838 3.33256 8.57344 3.50901 8.31717C3.47088 8.08549 3.29443 8.02214 3.19237 7.88019C3.01538 7.63756 2.86385 7.35492 2.72526 7.08546C2.45907 6.55911 2.26967 5.93019 2.06759 5.36571C1.97875 5.13519 1.9533 4.90378 1.86472 4.68556C1.71362 4.35248 1.43511 4.01833 1.22027 3.72366C0.929341 3.30014 0.082011 2.47929 0.423567 1.64481ZM4.57083 4.15858C4.60461 4.19285 4.6454 4.22282 4.68761 4.25234L4.73851 4.2877C4.80634 4.33525 4.87204 4.38532 4.9123 4.45352C4.97614 4.54378 4.98802 4.63289 5.06446 4.72333C5.06446 5.03173 4.97614 5.23676 4.79782 5.36454C4.79782 5.36454 4.78568 5.378 4.77317 5.39056C4.67209 5.18499 4.58351 4.9805 4.48172 4.77511C4.35634 4.59583 4.17909 4.45361 4.07694 4.24875H4.05238V4.223C4.20498 4.18487 4.35634 4.15858 4.57083 4.15858Z" fill="white"/>
</svg>
