<svg width="27" height="18" viewBox="0 0 27 18" fill="none" xmlns="http://www.w3.org/2000/svg">
<path d="M11.9802 12.8536C12.0547 13.8473 12.0403 14.8459 11.9369 15.837C11.9326 15.9763 11.8921 16.112 11.8196 16.2305C11.7471 16.349 11.6451 16.4461 11.5238 16.5121C10.7418 17.0997 8.12113 17.2406 7.7946 15.9922C7.67415 15.9874 7.77013 15.5837 7.65533 15.5989C7.4261 15.5799 7.2045 15.5066 7.00836 15.385C6.81223 15.2635 6.64705 15.097 6.52612 14.899C6.53082 13.5335 6.6795 8.60748 4.2677 9.93397C3.7436 10.2295 3.35056 10.7162 3.1686 11.2947C3.00609 11.7995 2.92972 12.3286 2.94276 12.8593C2.92394 13.5392 3.09143 14.2829 3.1159 15.099C3.12531 15.4637 3.18271 15.5561 2.91453 15.8665C2.4826 16.3664 1.72885 15.9446 1.3214 15.3951C1.14908 15.1184 1.05442 14.7994 1.04756 14.4724C0.723502 10.9054 1.04235 7.30842 1.98857 3.85668C2.33392 2.68541 2.45437 2.51591 3.55347 2.25309C4.80407 1.97473 6.09022 1.8976 7.36455 2.02455C8.35355 1.69888 10.7004 -0.0646975 11.713 1.33512C13.2493 0.989937 14.8384 0.959556 16.3865 1.24576C17.9346 1.53197 19.4104 2.12897 20.7269 3.00156C22.0603 3.10369 23.3984 3.12817 24.7346 3.07488C24.9228 2.953 25.143 2.82254 25.335 2.71017C25.4759 2.61361 25.6341 2.54599 25.8008 2.51115C26.0172 2.47687 26.2995 2.46735 26.3654 2.73969C26.4227 3.01918 26.442 3.30528 26.4228 3.59005C26.4163 3.76173 26.3531 3.92625 26.2435 4.05741C26.1338 4.18856 25.984 4.27881 25.8177 4.31377C25.4421 4.25137 25.0779 4.13194 24.7375 3.95953C23.5141 3.99381 22.7613 3.92525 21.538 3.95953C21.7347 4.17283 21.7262 4.31377 21.8693 4.59563C22.2208 5.53196 22.3382 6.54172 22.211 7.53505C22.0838 8.52839 21.7158 9.47449 21.14 10.2892C21.0534 11.708 21.1588 13.1412 21.1691 14.5648C21.1739 15.0552 21.2077 15.5218 20.7513 15.8475C20.3488 16.0917 19.8963 16.2393 19.4286 16.2789C18.961 16.3185 18.4905 16.2491 18.0535 16.076C17.8153 15.9376 17.6026 15.7585 17.4249 15.5466C17.2686 15.5639 17.1112 15.5671 16.9544 15.5561C16.6878 15.4806 16.4574 15.3097 16.306 15.0752C16.2193 14.9148 16.1453 14.7476 16.0849 14.5753C16.0849 13.9087 16.0604 13.6478 16.0604 12.9821C14.7038 13.2279 13.3117 13.1883 11.9708 12.866L11.9802 12.8536Z" fill="#CCCCCC"/>
<path d="M9.73044 17.0982C9.34177 17.1041 8.95482 17.0449 8.58524 16.923C8.38007 16.8673 8.19057 16.7639 8.03179 16.6211C7.87302 16.4783 7.74934 16.2999 7.67058 16.1003C7.60199 16.0138 7.56836 15.9042 7.57647 15.7937V15.7508C7.33729 15.7145 7.10856 15.6268 6.90567 15.4936C6.70278 15.3604 6.53043 15.1848 6.40021 14.9785L6.37763 14.9414V14.6938C6.3861 13.5682 6.40774 10.5772 5.40463 9.96872C5.23579 9.88571 5.04783 9.85072 4.86086 9.86749C4.67389 9.88427 4.49494 9.95217 4.34317 10.0639C3.84874 10.3427 3.47841 10.8023 3.30806 11.3485C3.15292 11.8368 3.08039 12.348 3.09351 12.8607C3.09355 13.2431 3.12028 13.6249 3.1735 14.0034C3.21396 14.3519 3.25536 14.7138 3.2676 15.0938C3.2676 15.1499 3.2676 15.1985 3.27418 15.2423C3.2956 15.374 3.28447 15.509 3.24178 15.6353C3.19909 15.7616 3.12617 15.8752 3.02952 15.966C2.95309 16.0574 2.85686 16.1296 2.74833 16.1772C2.63979 16.2248 2.52188 16.2463 2.40375 16.2403C2.16261 16.2066 1.93114 16.122 1.72431 15.9921C1.51748 15.8622 1.33989 15.6898 1.20302 15.4861C1.01003 15.1877 0.904938 14.8399 0.90002 14.4834C0.571786 10.8976 0.893235 7.28132 1.84856 3.8124C2.20143 2.61732 2.3567 2.38402 3.52261 2.10501C4.77872 1.82526 6.07031 1.7459 7.35063 1.8698C7.63208 1.7589 7.90699 1.63172 8.17402 1.4889C9.33334 0.902313 10.9124 0.105276 11.779 1.17085C13.3151 0.835411 14.9016 0.811491 16.4469 1.10047C17.9922 1.38945 19.4655 1.9856 20.7816 2.85443C22.0844 2.95356 23.3918 2.97645 24.6972 2.923C24.8854 2.80587 25.0849 2.68398 25.2674 2.57733L25.3201 2.54686C25.4612 2.4531 25.6192 2.38839 25.785 2.3564C26.2028 2.2907 26.4437 2.40687 26.5162 2.70017C26.5765 2.99404 26.5971 3.29485 26.5773 3.59434C26.5679 3.80241 26.4892 4.00115 26.3541 4.15828C26.219 4.31541 26.0353 4.42172 25.833 4.45993H25.8085L25.785 4.45327C25.7038 4.43226 25.6222 4.41258 25.5403 4.39423C25.2467 4.34337 24.9624 4.24769 24.6972 4.11046C24.1015 4.12569 23.6103 4.11712 23.1361 4.11046C22.7286 4.10379 22.3098 4.09617 21.8243 4.10379C21.8544 4.16378 21.876 4.22187 21.8996 4.28091C21.9301 4.36412 21.9653 4.44551 22.005 4.52469C22.37 5.48143 22.4957 6.51467 22.3707 7.53243C22.2458 8.5502 21.8741 9.52092 21.2889 10.3582C21.2362 11.2781 21.2634 12.2218 21.2889 13.135C21.303 13.6025 21.3171 14.0872 21.3199 14.5633V14.6452C21.3652 14.8899 21.3443 15.1423 21.2593 15.3758C21.1743 15.6094 21.0284 15.8153 20.8372 15.9717C20.4145 16.2322 19.9378 16.3898 19.4447 16.4323C18.9516 16.4747 18.4554 16.4009 17.9953 16.2165C17.7927 16.115 17.6123 15.9735 17.4646 15.8003C17.4317 15.766 17.3987 15.7318 17.3648 15.6994C17.3187 15.6994 17.2707 15.7051 17.2284 15.7099C17.1253 15.7263 17.0203 15.7243 16.9179 15.7041C16.6152 15.6194 16.3533 15.4261 16.1811 15.1604C16.1148 15.0523 16.0609 14.937 16.0201 14.8166C15.9981 14.7563 15.9742 14.6966 15.9486 14.6376L15.9355 14.6081V14.5757C15.9355 14.2453 15.9298 14.0101 15.9232 13.7835C15.9185 13.593 15.9138 13.4025 15.9119 13.1559C14.6628 13.3639 13.3863 13.3342 12.1479 13.0683C12.2045 13.9988 12.184 14.9324 12.0867 15.8594C12.0797 16.0182 12.0328 16.1726 11.9504 16.308C11.8681 16.4435 11.7531 16.5555 11.6162 16.6335C11.0429 16.9639 10.3896 17.1249 9.73044 17.0982ZM7.8776 15.8432H7.91147L7.9397 15.9517C7.99662 16.12 8.09473 16.271 8.22489 16.3906C8.35505 16.5101 8.51301 16.5944 8.68404 16.6355C9.5975 16.9173 10.5834 16.8288 11.4337 16.3888C11.5382 16.3349 11.6262 16.2533 11.6884 16.1526C11.7505 16.052 11.7845 15.9361 11.7865 15.8175C11.8849 14.8761 11.9022 13.9279 11.8383 12.9836L11.7583 12.9607L12.0877 12.2998L12.1263 12.7407C13.4158 13.0293 14.7489 13.0578 16.0493 12.8245L16.2196 12.8017V12.975C16.2196 13.3054 16.2253 13.5406 16.2319 13.7673C16.2385 13.9939 16.2432 14.2177 16.2441 14.5357C16.2676 14.5919 16.2883 14.6462 16.309 14.6986C16.3423 14.7983 16.3861 14.8941 16.4398 14.9842C16.5716 15.1885 16.7723 15.3374 17.0044 15.4032C17.0718 15.4134 17.1403 15.4134 17.2077 15.4032C17.2839 15.3941 17.3606 15.39 17.4373 15.3909H17.4938L17.5352 15.4299C17.586 15.4775 17.6368 15.5299 17.6876 15.5823C17.8084 15.7255 17.9554 15.8439 18.1205 15.9308C18.5339 16.094 18.9786 16.1596 19.4208 16.1227C19.8631 16.0857 20.2912 15.9471 20.6725 15.7175C21.0376 15.4566 21.0329 15.0985 21.0273 14.6443V14.5614C21.0273 14.0853 21.0103 13.6092 20.9962 13.1407C20.9689 12.2008 20.9407 11.2286 20.9962 10.2753V10.2125L21.0432 10.1706C21.598 9.3811 21.9517 8.4653 22.073 7.50437C22.1943 6.54345 22.0794 5.56708 21.7387 4.66181C21.694 4.57306 21.6545 4.48182 21.6201 4.38851C21.5822 4.26595 21.5179 4.15341 21.4319 4.05903L21.2051 3.8124L21.5373 3.80288C22.1527 3.78574 22.6552 3.79431 23.1426 3.80288C23.6301 3.81145 24.126 3.82002 24.7339 3.80288H24.7781L24.8158 3.82669C25.0611 3.96121 25.3265 4.05417 25.6015 4.10189C25.6787 4.11998 25.7549 4.13712 25.8292 4.15616C25.953 4.11722 26.0619 4.04068 26.1412 3.93693C26.2205 3.83318 26.2663 3.70725 26.2724 3.57624C26.2904 3.30613 26.272 3.0348 26.2179 2.76968C26.2047 2.7116 26.1793 2.60209 25.8264 2.65827C25.6974 2.68394 25.5746 2.73507 25.465 2.80873L25.4123 2.8392C25.2241 2.94775 25.0087 3.08012 24.8186 3.2001L24.7838 3.222H24.7433C23.4012 3.27763 22.0569 3.25314 20.7177 3.14868H20.6781L20.6452 3.12583C19.3453 2.26327 17.8875 1.67346 16.3583 1.3913C14.8291 1.10915 13.2594 1.14039 11.7423 1.48319L11.6482 1.50033L11.5927 1.42415C10.8898 0.452849 9.39639 1.20799 8.30576 1.75934C8.01702 1.91563 7.71838 2.05242 7.4118 2.16881L7.38169 2.17833H7.35063C6.09208 2.05269 4.82182 2.12853 3.5866 2.40306C2.53173 2.65446 2.45739 2.78397 2.13086 3.90191C1.18473 7.3348 0.865835 10.9136 1.18985 14.4624C1.19187 14.7604 1.27594 15.0519 1.43263 15.3042C1.54341 15.4714 1.68677 15.6138 1.85393 15.7229C2.02109 15.832 2.20851 15.9053 2.40469 15.9384C2.47813 15.9427 2.55154 15.9295 2.61904 15.8999C2.68653 15.8703 2.74623 15.8251 2.79333 15.7679C2.86411 15.7068 2.91735 15.6275 2.94748 15.5384C2.97761 15.4493 2.98352 15.3536 2.96459 15.2613C2.96459 15.2147 2.95895 15.1661 2.95801 15.1052C2.94362 14.749 2.91221 14.3937 2.8639 14.0406C2.80887 13.6485 2.78151 13.2529 2.78204 12.8569C2.76827 12.3076 2.84817 11.7599 3.01823 11.2381C3.21389 10.6272 3.63076 10.1138 4.18508 9.80113C4.38151 9.66148 4.6119 9.5788 4.85138 9.56202C5.09086 9.54524 5.33032 9.59499 5.5439 9.7059C6.69475 10.4039 6.67311 13.4102 6.6637 14.6938V14.8528C6.77139 15.018 6.91407 15.1569 7.08139 15.2593C7.24871 15.3618 7.43648 15.4253 7.63105 15.4451C7.65622 15.4423 7.68169 15.4446 7.70595 15.452C7.7302 15.4594 7.75274 15.4716 7.7722 15.488C7.80625 15.5266 7.83216 15.5719 7.84834 15.621C7.86452 15.6701 7.87063 15.7221 7.86631 15.7737C7.87477 15.7956 7.87572 15.8232 7.8776 15.8432Z" fill="#CCCCCC"/>
<path d="M11.4206 12.4717C11.4952 13.4655 11.4807 14.464 11.3773 15.4552C11.373 15.5945 11.3325 15.7302 11.26 15.8486C11.1875 15.9671 11.0855 16.0643 10.9642 16.1303C10.1823 16.7178 7.56155 16.8588 7.23502 15.6104C7.11458 15.6056 7.21056 15.2019 7.09576 15.2171C6.86653 15.198 6.64493 15.1248 6.44879 15.0032C6.25266 14.8816 6.08748 14.7152 5.96655 14.5172C5.97125 13.1517 6.11993 8.22564 3.70813 9.55213C3.18403 9.84771 2.79099 10.3343 2.60903 10.9129C2.44652 11.4177 2.37015 11.9467 2.38319 12.4775C2.36436 13.1574 2.53186 13.9011 2.55633 14.7172C2.56574 15.0819 2.62314 15.1742 2.35495 15.4847C1.92303 15.9846 1.16928 15.5628 0.761827 15.0133C0.58951 14.7366 0.494852 14.4176 0.487994 14.0906C0.163932 10.5235 0.482775 6.92658 1.429 3.47485C1.77435 2.30358 1.8948 2.13407 2.9939 1.87125C4.2445 1.59289 5.53065 1.51576 6.80498 1.64271C7.79398 1.31704 10.1409 -0.446533 11.1534 0.95328C12.6897 0.608101 14.2788 0.577719 15.8269 0.863926C17.375 1.15013 18.8508 1.74713 20.1673 2.61972C21.5007 2.72185 22.8389 2.74634 24.1751 2.69305C24.3633 2.57116 24.5835 2.4407 24.7754 2.32833C24.9163 2.23177 25.0746 2.16415 25.2412 2.12931C25.4577 2.09503 25.74 2.08551 25.8058 2.35785C25.8631 2.63734 25.8824 2.92344 25.8632 3.20822C25.8567 3.37989 25.7936 3.54441 25.6839 3.67557C25.5743 3.80673 25.4244 3.89697 25.2582 3.93193C24.8825 3.86953 24.5183 3.7501 24.1779 3.57769C22.9546 3.61197 22.2018 3.54341 20.9785 3.57769C21.1751 3.791 21.1667 3.93193 21.3097 4.2138C21.6613 5.15012 21.7787 6.15988 21.6514 7.15322C21.5242 8.14655 21.1563 9.09265 20.5804 9.90732C20.4938 11.3262 20.5992 12.7593 20.6096 14.1829C20.6143 14.6734 20.6482 15.14 20.1918 15.4656C19.7892 15.7098 19.3368 15.8574 18.8691 15.897C18.4014 15.9367 17.9309 15.8673 17.4939 15.6942C17.2557 15.5558 17.043 15.3767 16.8653 15.1647C16.7091 15.1821 16.5516 15.1852 16.3948 15.1742C16.1282 15.0988 15.8978 14.9279 15.7464 14.6934C15.6597 14.5329 15.5858 14.3658 15.5253 14.1934C15.5253 13.5268 15.5008 13.2659 15.5008 12.6003C14.1442 12.846 12.7521 12.8065 11.4112 12.4841L11.4206 12.4717Z" fill="#373435"/>
<path d="M9.16996 16.7173C8.78129 16.7232 8.39434 16.664 8.02476 16.5421C7.81959 16.4864 7.63009 16.383 7.47131 16.2402C7.31254 16.0973 7.18886 15.919 7.1101 15.7194C7.04151 15.6329 7.00788 15.5233 7.016 15.4127V15.3699C6.77681 15.3336 6.54808 15.2459 6.34519 15.1127C6.1423 14.9795 5.96995 14.8039 5.83973 14.5976L5.81715 14.5605V14.3129C5.82562 13.1873 5.84726 10.1963 4.84415 9.5878C4.67531 9.50479 4.48735 9.4698 4.30038 9.48657C4.11341 9.50334 3.93446 9.57125 3.78269 9.68302C3.28826 9.96181 2.91793 10.4214 2.74758 10.9676C2.59244 11.4559 2.5199 11.9671 2.53303 12.4798C2.53306 12.8621 2.55979 13.244 2.61302 13.6225C2.65348 13.972 2.69488 14.3329 2.70712 14.7138C2.70712 14.77 2.70712 14.8185 2.7137 14.8623C2.73512 14.994 2.72399 15.129 2.6813 15.2553C2.63861 15.3816 2.56569 15.4952 2.46904 15.586C2.39266 15.6774 2.29644 15.7498 2.18789 15.7973C2.07934 15.8449 1.9614 15.8664 1.84327 15.8603C1.60213 15.8266 1.37066 15.742 1.16383 15.6121C0.957003 15.4822 0.779413 15.3098 0.642543 15.1061C0.449599 14.8077 0.344509 14.4599 0.339538 14.1034C0.0111889 10.5173 0.332639 6.9007 1.28808 3.43148C1.64095 2.2364 1.79622 2.00309 2.96213 1.72408C4.21823 1.44431 5.50983 1.36495 6.79015 1.48888C7.0716 1.37797 7.34651 1.2508 7.61353 1.10798C8.77286 0.521387 10.3519 -0.276602 11.2185 0.789923C12.7547 0.454676 14.3413 0.430939 15.8865 0.720082C17.4318 1.00923 18.9051 1.60551 20.2212 2.47446C21.5224 2.57407 22.8281 2.5976 24.132 2.54493C24.3155 2.4297 24.5206 2.30496 24.7023 2.19926L24.7549 2.16879C24.896 2.07503 25.054 2.01032 25.2198 1.97834C25.6376 1.91263 25.8785 2.0288 25.951 2.3221C26.0113 2.61597 26.0319 2.91678 26.0121 3.21627C26.0027 3.42434 25.924 3.62308 25.7889 3.78021C25.6538 3.93734 25.4701 4.04365 25.2678 4.08186H25.2433L25.2198 4.0752C25.1386 4.05419 25.057 4.03451 24.9751 4.01616C24.6837 3.96405 24.4017 3.86774 24.1386 3.73048C23.5429 3.74572 23.0517 3.73715 22.5775 3.73048C22.17 3.72382 21.7512 3.7162 21.2657 3.72382C21.2958 3.78381 21.3174 3.8419 21.341 3.90094C21.3715 3.98414 21.4067 4.06553 21.4464 4.14471C21.8113 5.10147 21.9369 6.13469 21.812 7.15244C21.6871 8.17019 21.3155 9.14091 20.7303 9.97822C20.6776 10.8981 20.7048 11.8418 20.7303 12.754C20.7434 13.2226 20.7575 13.7063 20.7613 14.1824V14.2643C20.8067 14.5088 20.7859 14.7612 20.7011 14.9948C20.6163 15.2283 20.4706 15.4343 20.2795 15.5908C19.8568 15.8512 19.3801 16.0089 18.887 16.0513C18.3939 16.0938 17.8978 16.0199 17.4377 15.8355C17.2351 15.734 17.0546 15.5926 16.9069 15.4194C16.874 15.3851 16.8411 15.3508 16.8072 15.3185C16.7611 15.3185 16.7131 15.3242 16.6707 15.3289C16.5677 15.3454 16.4626 15.3434 16.3602 15.3232C16.0575 15.2385 15.7957 15.0452 15.6234 14.7795C15.5571 14.6714 15.5031 14.5561 15.4625 14.4357C15.4404 14.3753 15.4166 14.3156 15.391 14.2567L15.3778 14.2272V14.1948C15.3778 13.8644 15.3722 13.6292 15.3656 13.4025C15.3609 13.2121 15.3552 13.0216 15.3543 12.775C14.1051 12.9829 12.8286 12.9532 11.5902 12.6874C11.6444 13.6171 11.6218 14.5497 11.5225 15.4756C11.5154 15.6344 11.4685 15.7888 11.3862 15.9243C11.3039 16.0597 11.1889 16.1717 11.052 16.2498C10.4801 16.5804 9.82814 16.7424 9.16996 16.7173ZM7.31712 15.4623H7.35099L7.37922 15.5708C7.43614 15.7391 7.53425 15.8901 7.66441 16.0096C7.79457 16.1292 7.95253 16.2134 8.12356 16.2545C9.03701 16.5364 10.023 16.448 10.8732 16.0079C10.9777 15.954 11.0657 15.8724 11.1279 15.7717C11.1901 15.6711 11.224 15.5552 11.2261 15.4365C11.3244 14.4952 11.3417 13.547 11.2778 12.6026L11.1978 12.5798L11.5225 11.9237L11.5611 12.3646C12.8506 12.6531 14.1837 12.6816 15.4841 12.4484L15.6545 12.4255V12.5988C15.6545 12.9293 15.6601 13.1645 15.6667 13.3911C15.6733 13.6177 15.678 13.8415 15.6789 14.1596C15.7024 14.2158 15.7231 14.27 15.7438 14.3234C15.777 14.4231 15.8209 14.5189 15.8746 14.609C16.0064 14.8133 16.2071 14.9622 16.4393 15.028C16.5066 15.0383 16.5751 15.0383 16.6425 15.028C16.7187 15.0189 16.7954 15.0148 16.8721 15.0156H16.9286L16.97 15.0547C17.0208 15.1023 17.0716 15.1499 17.1224 15.207C17.2432 15.3503 17.3902 15.4686 17.5553 15.5556C17.9687 15.7188 18.4134 15.7844 18.8557 15.7474C19.2979 15.7105 19.726 15.5719 20.1073 15.3423C20.4724 15.0814 20.4677 14.7233 20.4621 14.2691V14.1862C20.4621 13.7101 20.4451 13.234 20.431 12.7645C20.4037 11.8246 20.3755 10.8533 20.431 9.90014V9.83729L20.4781 9.79539C21.0327 9.00585 21.3864 8.09005 21.5077 7.12914C21.629 6.16823 21.5142 5.19188 21.1735 4.2866C21.1289 4.19785 21.0893 4.1066 21.0549 4.0133C21.017 3.89073 20.9528 3.7782 20.8667 3.68382L20.6399 3.43719L20.9721 3.42767C21.5875 3.41053 22.09 3.4191 22.5775 3.42767C23.0649 3.43624 23.5608 3.44481 24.1687 3.42767H24.2129L24.2506 3.45147C24.4959 3.58599 24.7613 3.67896 25.0363 3.72667C25.1135 3.74477 25.1897 3.76191 25.264 3.78095C25.3878 3.74201 25.4967 3.66546 25.576 3.56171C25.6553 3.45797 25.7011 3.33204 25.7072 3.20103C25.7252 2.93092 25.7068 2.65959 25.6527 2.39447C25.6395 2.33638 25.6141 2.22783 25.2612 2.28306C25.1322 2.30871 25.0094 2.35983 24.8999 2.43351L24.8462 2.46398C24.658 2.57349 24.4406 2.70586 24.2524 2.82489L24.2261 2.84393H24.1856C22.8435 2.8995 21.4993 2.87501 20.16 2.77061H20.1205L20.0857 2.74585C18.7857 1.8833 17.328 1.29348 15.7988 1.01133C14.2695 0.729174 12.6999 0.760419 11.1828 1.10321L11.0887 1.12036L11.0332 1.04417C10.3302 0.0728755 8.83685 0.828013 7.74622 1.37937C7.45748 1.53566 7.15884 1.67245 6.85226 1.78884L6.82215 1.79836H6.79109C5.53254 1.67265 4.26227 1.74849 3.02706 2.02309C1.97219 2.27449 1.89785 2.40399 1.57132 3.52194C0.625191 6.95482 0.306295 10.5337 0.63031 14.0824C0.632328 14.3804 0.716402 14.6719 0.87309 14.9242C0.983866 15.0914 1.12723 15.2339 1.29439 15.3429C1.46155 15.452 1.64897 15.5253 1.84515 15.5584C1.91865 15.5633 1.99224 15.5503 2.05982 15.5207C2.1274 15.4911 2.18703 15.4456 2.23379 15.388C2.30457 15.3268 2.35781 15.2475 2.38794 15.1584C2.41807 15.0693 2.42398 14.9736 2.40505 14.8814C2.40505 14.8347 2.39941 14.7862 2.39847 14.7252C2.38408 14.369 2.35267 14.0137 2.30436 13.6606C2.24929 13.2685 2.22193 12.873 2.2225 12.4769C2.20873 11.9276 2.28863 11.38 2.45869 10.8581C2.65435 10.2472 3.07121 9.73382 3.62554 9.42115C3.82197 9.28151 4.05236 9.19883 4.29184 9.18205C4.53132 9.16526 4.77078 9.21502 4.98436 9.32593C6.13521 10.0239 6.11357 13.0302 6.10416 14.3138V14.4729C6.21322 14.6385 6.35756 14.7774 6.52659 14.8792C6.69561 14.981 6.88502 15.0433 7.08092 15.0614C7.10609 15.0585 7.13156 15.0609 7.15582 15.0682C7.18007 15.0756 7.20261 15.0878 7.22208 15.1042C7.25612 15.1429 7.28203 15.1881 7.29821 15.2372C7.31439 15.2864 7.3205 15.3383 7.31618 15.3899C7.31457 15.414 7.31489 15.4382 7.31712 15.4623Z" fill="#373435"/>
<path d="M15.8244 12.4388C16.1264 12.4093 16.4246 12.349 16.7146 12.2588C16.8602 13.1231 16.9035 14.0019 16.8435 14.8765C16.6238 14.8906 16.4049 14.838 16.2148 14.7255C16.0248 14.6131 15.8721 14.4458 15.7764 14.2452C15.7278 13.6431 15.7439 13.0374 15.8244 12.4388Z" fill="#6978AB"/>
<path d="M16.813 15.0293C16.5709 15.0376 16.3316 14.9747 16.1241 14.8481C15.9167 14.7215 15.75 14.5366 15.6443 14.316L15.6302 14.2894V14.2589C15.581 13.6457 15.5974 13.0288 15.6791 12.4192L15.6942 12.3011L15.8109 12.2877C16.1028 12.259 16.3913 12.201 16.6719 12.1144L16.8262 12.064L16.8639 12.2239C17.0054 13.0037 17.0519 13.7981 17.0022 14.5893L16.9947 15.0264H16.8497L16.813 15.0293ZM15.9247 14.2008C15.9983 14.3475 16.1081 14.4723 16.2435 14.5633C16.3788 14.6542 16.5352 14.7082 16.6973 14.7198V14.5827C16.7378 13.8709 16.7063 13.1568 16.6032 12.4515C16.392 12.5077 16.1773 12.5491 15.9605 12.5753C15.8948 13.1158 15.8825 13.6616 15.9238 14.2046L15.9247 14.2008Z" fill="#373435"/>
<path d="M2.16193 15.0451C1.95021 13.6415 1.73472 11.1647 2.72654 9.98391C2.80503 9.8769 2.88988 9.77482 2.98061 9.67824C4.54551 8.18701 5.90903 9.46969 6.27885 11.1209C6.35723 12.1649 6.37326 13.2127 6.32684 14.2586C6.41928 14.4405 6.56196 14.5914 6.73754 14.6928C6.91311 14.7942 7.11402 14.8419 7.31584 14.8299C7.45981 15.1308 7.42123 15.3546 7.58497 15.5536C7.89575 15.9066 8.30336 16.158 8.75585 16.2757C9.20834 16.3934 9.68521 16.3721 10.1257 16.2145C10.4204 16.088 10.7073 15.9437 10.9848 15.7822C11.2095 14.5049 11.1775 13.1948 10.8907 11.9303C10.8907 11.7551 10.8333 11.6389 10.8333 11.4637C10.941 11.4793 11.0423 11.5248 11.126 11.5951C10.9378 12.2941 13.5312 12.775 16.5565 11.9303C16.5904 11.8084 16.5321 11.658 16.6045 11.6142C16.6513 11.5845 16.704 11.5657 16.7588 11.5589C16.8136 11.5522 16.8692 11.5577 16.9217 11.5751C16.9358 11.7989 16.9405 12.017 16.9555 12.2417C17.1901 12.2641 17.4262 12.2673 17.6613 12.2512C17.5069 12.3917 17.3041 12.4649 17.0967 12.455C17.1494 12.455 17.0675 12.5569 17.1155 12.5664C17.2548 12.6007 17.5192 12.5474 17.6293 12.5959C17.4232 12.7178 17.1927 12.6493 17.0534 12.7864C17.0873 13.5292 17.1061 14.3262 17.1353 15.0718C17.5891 15.4204 18.1491 15.5971 18.7183 15.5714C19.2874 15.5456 19.8297 15.319 20.2509 14.9309C20.3409 13.4389 20.3094 11.942 20.1568 10.4553C20.0467 10.441 19.9357 10.421 19.8256 10.4067C21.5448 8.06607 21.8761 5.67115 20.4354 3.50954C20.4213 3.41431 20.3582 3.31908 20.3413 3.22386C21.5947 3.17529 22.882 3.3067 24.1392 3.25814C24.4786 3.38818 24.8288 3.48729 25.1856 3.55429C25.5554 3.42288 25.6222 2.38397 25.2581 2.50015C24.8939 2.61632 24.6934 2.84962 24.3029 2.99532C22.8622 2.99532 21.2635 2.93723 19.8237 2.93723C18.6483 1.99088 17.2563 1.35949 15.7761 1.10135C14.2959 0.843214 12.7753 0.966659 11.3546 1.46028C11.7922 2.4137 12.0391 3.44527 12.0811 4.49562C12.123 5.54597 11.9593 6.59436 11.5993 7.58042C11.5174 7.85277 10.2744 8.64885 11.2916 7.77944C12.3192 6.89575 11.6755 0.756569 10.4127 0.746094C8.92667 0.761701 7.50014 1.33913 6.41341 2.36493C6.21674 2.15162 6.23086 2.23828 6.31931 1.93736C5.24453 1.84371 4.16185 1.94038 3.11988 2.22304C2.84983 2.23176 2.58865 2.32265 2.37042 2.48386C2.1522 2.64507 1.98706 2.8691 1.89657 3.12673C0.946932 6.56103 0.565375 10.1307 0.76736 13.691C0.816804 14.118 0.928425 14.5351 1.09859 14.929C1.6632 15.5555 1.96809 15.3756 2.15535 15.0451H2.16193Z" fill="url(#paint0_linear_2525_1188)"/>
<path d="M4.41402 3.3695C4.09742 3.23885 3.75363 3.19009 3.41373 3.22762C3.38255 3.22418 3.35116 3.23179 3.3249 3.24915C3.29865 3.26652 3.27916 3.29256 3.26976 3.32284C3.25712 3.34478 3.24894 3.36906 3.24571 3.39424C3.24248 3.41943 3.24425 3.44501 3.25094 3.46949C3.28011 3.55234 3.28481 3.54758 3.35633 3.56472C3.45105 3.57901 3.54776 3.57053 3.63863 3.53996C3.74606 3.48268 3.86459 3.44994 3.98587 3.44401C4.10715 3.43809 4.22825 3.45914 4.34063 3.50568C4.44602 3.50091 4.45637 3.45711 4.42249 3.37331L4.41402 3.3695Z" fill="#373435"/>
<path d="M3.43575 3.72051C3.39844 3.72064 3.36122 3.71681 3.32471 3.70908H3.31247C3.26266 3.70395 3.21584 3.68262 3.17902 3.64828C3.1422 3.61394 3.11738 3.56845 3.10828 3.51863C3.09502 3.47387 3.09078 3.42687 3.09579 3.38042C3.1008 3.33397 3.11497 3.289 3.13745 3.24819C3.15927 3.19555 3.19648 3.15092 3.24408 3.12029C3.29167 3.08965 3.34739 3.07447 3.40375 3.07678C3.75504 3.03919 4.11011 3.08786 4.43886 3.21867H4.51602L4.55461 3.3139C4.57622 3.34981 4.58749 3.39113 4.58714 3.43318C4.58679 3.47524 4.57484 3.51636 4.55263 3.5519C4.53042 3.58745 4.49884 3.616 4.46144 3.63435C4.42405 3.6527 4.38233 3.66012 4.341 3.65575H4.31841L4.293 3.64814C4.20033 3.60753 4.09988 3.58834 3.99896 3.59196C3.89803 3.59559 3.79918 3.62194 3.70958 3.66909L3.69264 3.67956L3.67382 3.68432C3.59635 3.70676 3.51632 3.71893 3.43575 3.72051ZM3.39434 3.41293C3.4577 3.41954 3.52173 3.41306 3.58254 3.39388L3.63336 3.36817C3.56749 3.36817 3.50068 3.36817 3.43292 3.37865H3.40846L3.40281 3.39008C3.39871 3.39715 3.39585 3.40488 3.39434 3.41293ZM3.639 4.57373C3.68201 4.4832 3.74988 4.40713 3.83448 4.35461C3.91909 4.30209 4.01686 4.27534 4.1161 4.27758C4.13492 4.15569 4.1161 4.08712 3.96177 4.08712C3.7426 4.19956 3.5554 4.36671 3.41787 4.57277C3.3389 4.75192 3.31371 4.95061 3.34541 5.14413C3.36262 5.27639 3.43014 5.39665 3.53361 5.47932C3.64075 5.54718 3.76566 5.58068 3.89195 5.57541C4.01823 5.57014 4.14 5.52636 4.24125 5.4498C4.57813 5.25078 4.91501 4.68228 4.32312 4.46803C4.2045 4.4446 4.08246 4.44543 3.96416 4.47045C3.84587 4.49547 3.73371 4.54418 3.6343 4.61372C3.62489 4.61848 3.62018 4.59944 3.6343 4.57468L3.639 4.57373Z" fill="#373435"/>
<path d="M3.82105 5.73487C3.68122 5.73766 3.54502 5.68969 3.43712 5.59965C3.30398 5.49137 3.21761 5.335 3.19622 5.16351C3.15789 4.93683 3.1908 4.70369 3.29032 4.49694C3.44091 4.26824 3.64655 4.0821 3.88787 3.95606L3.9208 3.93606H3.95656C4.00272 3.93155 4.04929 3.93731 4.09302 3.95294C4.13674 3.96857 4.17657 3.99368 4.20969 4.02652C4.23813 4.06556 4.25776 4.11043 4.26719 4.15799C4.27663 4.20554 4.27563 4.2546 4.26427 4.30172C4.39205 4.32126 4.51105 4.37932 4.60572 4.46834C4.7004 4.55735 4.76636 4.67318 4.795 4.8007C4.78956 4.96213 4.74261 5.11932 4.65878 5.25677C4.57494 5.39421 4.45713 5.50714 4.31697 5.58441C4.1675 5.67757 3.99651 5.72944 3.82105 5.73487ZM3.51711 4.71976C3.48229 4.85395 3.47461 4.99387 3.49452 5.13114C3.50772 5.22489 3.5567 5.30968 3.63097 5.3673C3.81258 5.52061 4.10712 5.35682 4.16452 5.32254C4.25506 5.27358 4.3325 5.20312 4.39019 5.1172C4.44789 5.03128 4.48411 4.93248 4.49576 4.82927C4.48729 4.73405 4.41201 4.66548 4.27274 4.61501C4.07697 4.58512 3.87733 4.63214 3.71472 4.74643L3.70249 4.75309L3.6018 4.80451L3.51899 4.71976H3.51711Z" fill="#373435"/>
<path d="M3.90025 5.23501C3.90221 5.26973 3.90885 5.30401 3.92001 5.3369C3.92483 5.35225 3.93147 5.36696 3.93977 5.38071C3.9123 5.39916 3.8808 5.41053 3.848 5.41385C3.8152 5.41717 3.7821 5.41233 3.75157 5.39975C3.5436 5.30452 3.55866 5.00933 3.66499 4.84935C3.7207 4.76684 3.79476 4.6987 3.88121 4.65041C3.96766 4.60212 4.06411 4.57502 4.16279 4.57129C4.27383 4.62938 4.3077 4.68366 4.24936 4.69794C4.2164 4.70426 4.18464 4.71583 4.15526 4.73222C4.13292 4.74235 4.11296 4.7572 4.09674 4.77575C4.08051 4.79431 4.06838 4.81615 4.06116 4.83982C4.10915 4.85411 4.13361 4.83982 4.1769 4.85887V5.01028C4.13066 4.98677 4.07784 4.98005 4.02728 4.99123C3.93318 5.02075 3.89648 5.15692 3.89648 5.23977L3.90025 5.23501Z" fill="#FEFEFE"/>
<path d="M4.29785 9.11823C4.56443 9.06041 4.81702 8.94965 5.041 8.79234C5.26497 8.63504 5.45588 8.43433 5.60265 8.20183C5.74943 7.96934 5.84916 7.70968 5.89607 7.43791C5.94298 7.16613 5.93613 6.88764 5.87592 6.61856C5.70746 6.61502 5.54239 6.56991 5.39507 6.48715C5.38566 6.4243 5.38095 6.3605 5.3706 6.2967C5.76018 6.48715 6.31161 6.54428 6.24009 5.94151C6.29279 5.92722 6.37466 5.92246 6.42829 5.90723C6.40947 6.33003 6.33419 6.36907 6.0773 6.54905C6.15118 7.01001 6.11264 7.48226 5.96504 7.92471C5.81744 8.36716 5.56524 8.76642 5.23039 9.08775C5.21046 9.22002 5.22207 9.35519 5.26427 9.48199C5.14109 9.35175 4.98992 9.25197 4.82249 9.19037C4.65506 9.12878 4.47587 9.10702 4.29879 9.1268L4.29785 9.11823Z" fill="#373435"/>
<path d="M5.52984 10.0055L5.15343 9.58458C5.04416 9.47072 4.91035 9.38396 4.76245 9.3311C4.61456 9.27824 4.45658 9.2607 4.30088 9.27986H4.14844V9.01323L4.25477 8.97038C4.73927 8.86985 5.16597 8.58217 5.44428 8.16844C5.72258 7.7547 5.83058 7.24749 5.74533 6.75449C5.59275 6.74297 5.44505 6.695 5.31435 6.6145L5.256 6.57737L5.24565 6.50976L5.23248 6.40977L5.22119 6.32026L5.1779 6.03458L5.4348 6.16028C5.52109 6.21637 5.61864 6.2523 5.72037 6.26548C5.8221 6.27866 5.92546 6.26874 6.02293 6.23646C6.08315 6.19361 6.10574 6.10029 6.08974 5.95935L6.07562 5.82985L6.19984 5.79557C6.23671 5.78629 6.2741 5.77929 6.31182 5.77462C6.33714 5.77161 6.36227 5.76716 6.3871 5.76129L6.58659 5.70605L6.57718 5.9146C6.55742 6.34883 6.46332 6.45833 6.23748 6.62117C6.29628 7.08406 6.24829 7.55445 6.09726 7.99542C5.94624 8.43638 5.6963 8.83594 5.36704 9.16274C5.36724 9.24387 5.37832 9.32459 5.39998 9.4027L5.52984 10.0055ZM4.87113 9.04561C4.93955 9.06775 5.00572 9.09645 5.06874 9.13131C5.07158 9.09889 5.07821 9.06692 5.08851 9.03609L5.09886 9.00561L5.1205 8.98181C5.2008 8.89484 5.27514 8.80755 5.34352 8.71994C5.19895 8.84651 5.04044 8.95578 4.87113 9.04561Z" fill="#373435"/>
<path d="M19.1986 15.5497C19.1751 15.1907 19.1318 14.8755 19.1215 14.5156C19.0979 13.6909 18.4788 13.511 18.4449 14.3356C18.4261 14.7679 18.4449 15.1755 18.4449 15.5831C18.6961 15.6178 18.9514 15.6065 19.1986 15.5497Z" fill="#8093D0"/>
<path d="M18.8046 15.6517C18.7105 15.6517 18.622 15.646 18.5326 15.6402L18.3915 15.6326V15.1803C18.3915 14.908 18.383 14.6261 18.3915 14.3357C18.4093 13.9043 18.5797 13.751 18.7312 13.751C18.9316 13.751 19.1518 14.0205 19.1669 14.5128C19.1725 14.7328 19.1913 14.9337 19.2101 15.146C19.2224 15.2755 19.2337 15.4069 19.2431 15.5441V15.585L19.2045 15.5964C19.0744 15.6339 18.9398 15.6524 18.8046 15.6517ZM18.495 15.5374H18.5401C18.742 15.5614 18.9463 15.5521 19.1452 15.5098C19.1367 15.3879 19.1254 15.2708 19.1151 15.1556C19.0953 14.9413 19.0775 14.7394 19.0709 14.5156C19.0586 14.1052 18.8827 13.8491 18.7349 13.8491C18.6333 13.8491 18.51 13.9767 18.495 14.3366C18.4818 14.6223 18.4865 14.908 18.495 15.1755C18.4931 15.2974 18.495 15.4165 18.495 15.5374Z" fill="#373435"/>
<path d="M18.4557 15.5916C18.3874 15.1773 18.3619 14.757 18.3795 14.3375C18.4322 13.5757 17.7208 12.7729 17.6728 14.187C17.6554 14.6003 17.6714 15.0143 17.7208 15.4249C17.9612 15.4997 18.2069 15.5554 18.4557 15.5916Z" fill="#8093D0"/>
<path d="M18.5126 15.6527L18.4477 15.6422C18.196 15.6065 17.9474 15.5507 17.7043 15.4755L17.6742 15.4651V15.4336C17.6244 15.0199 17.6083 14.6026 17.6262 14.1862C17.6413 13.7301 17.7203 13.4596 17.8737 13.3815C17.9087 13.3638 17.9479 13.3565 17.9869 13.3604C18.0259 13.3643 18.0629 13.3792 18.0939 13.4034C18.217 13.5235 18.3115 13.6704 18.3704 13.8329C18.4292 13.9953 18.4508 14.1692 18.4336 14.3414C18.4124 14.7092 18.4297 15.0782 18.4853 15.4422L18.5126 15.6527ZM17.7655 15.3889C17.9725 15.4511 18.1834 15.4988 18.3969 15.5317L18.3875 15.4527C18.3293 15.0831 18.3094 14.7085 18.3282 14.3347C18.3441 14.1804 18.326 14.0243 18.2751 13.8779C18.2241 13.7315 18.1417 13.5984 18.0337 13.4882C18.0175 13.4743 17.9978 13.4653 17.9768 13.4622C17.9558 13.4592 17.9344 13.4622 17.9151 13.471C17.8633 13.4977 17.741 13.6224 17.7212 14.189C17.7044 14.5895 17.7192 14.9908 17.7655 15.3889Z" fill="#373435"/>
<path d="M17.721 15.4898L17.6203 13.871C17.5478 12.6626 17.0679 12.8035 17.0293 13.7986C17.0105 14.269 17.0482 14.5262 17.0049 14.9975C17.2307 15.1527 17.466 15.4584 17.721 15.4832V15.4898Z" fill="#8093D0"/>
<path d="M17.7173 15.5378C17.5159 15.488 17.334 15.3782 17.195 15.2226C17.1264 15.1586 17.0542 15.0988 16.9786 15.0435L16.9541 15.0264V14.9969C16.9738 14.7689 16.9804 14.54 16.9739 14.3113V13.8008C16.9936 13.2933 17.1263 12.9638 17.3117 12.9619C17.4999 12.9619 17.6297 13.3019 17.6636 13.8723L17.7643 15.4911H17.7135L17.7173 15.5378ZM17.0586 14.9769C17.1263 15.0264 17.1941 15.0873 17.2609 15.1464C17.376 15.2667 17.5144 15.3616 17.6674 15.4254L17.5733 13.8789C17.5375 13.28 17.403 13.0638 17.3211 13.0638C17.2364 13.0638 17.1018 13.3009 17.083 13.8056C17.0746 13.9961 17.0774 14.1589 17.083 14.3113C17.0867 14.5328 17.0785 14.7543 17.0586 14.975V14.9769Z" fill="#373435"/>
<path d="M9.51333 16.3261C9.52609 15.9471 9.50689 15.5677 9.45593 15.192C9.25456 14.3159 9.00048 14.2083 8.70312 14.8558V16.3109C8.97207 16.3481 9.24455 16.3513 9.51427 16.3204L9.51333 16.3261Z" fill="#8093D0"/>
<path d="M9.20931 16.3942C9.05311 16.3942 8.8969 16.38 8.74352 16.3657L8.64941 16.3571V14.8335C8.79339 14.5202 8.93172 14.3745 9.07099 14.3898C9.24225 14.4078 9.37775 14.6583 9.49726 15.1792L9.50667 15.262C9.55303 15.6148 9.56972 15.971 9.55655 16.3266H9.50761L9.5142 16.3704C9.41334 16.3864 9.3114 16.3944 9.20931 16.3942ZM8.75198 16.2647C8.98826 16.2954 9.22715 16.2996 9.46433 16.2771C9.47369 15.942 9.4567 15.6067 9.41351 15.2744L9.40504 15.1973C9.26766 14.6002 9.13403 14.4983 9.06722 14.4916C9.01547 14.4916 8.90913 14.5288 8.75198 14.8678V16.2647Z" fill="#373435"/>
<path d="M8.0408 16.0858C8.04551 15.5278 8.05021 15.1583 8.05021 14.6003C8.25159 13.7795 8.45767 13.8623 8.65905 14.8479C8.66375 15.3773 8.66846 15.7221 8.66846 16.2506C8.44818 16.2418 8.23228 16.1857 8.03516 16.0858H8.0408Z" fill="#8093D0"/>
<path d="M8.71603 16.3084L8.63134 16.2989C8.4139 16.2882 8.20121 16.2307 8.00745 16.1303L7.84277 16.0351H7.98769V15.7494C7.98769 15.359 7.99428 15.0362 7.99428 14.5962V14.5839C8.0959 14.1706 8.19565 13.9858 8.31892 13.9858C8.41303 13.9858 8.54571 14.0858 8.69533 14.8333V15.1628C8.69533 15.5294 8.70191 15.8294 8.70191 16.2474L8.71603 16.3084ZM8.08838 16.0589C8.25414 16.1378 8.43337 16.1837 8.61628 16.1941C8.61628 15.8075 8.61628 15.5171 8.6097 15.1676V14.8486C8.46196 14.1315 8.34904 14.0925 8.32739 14.0925C8.30575 14.0925 8.22482 14.1039 8.10061 14.6067C8.10061 15.0438 8.10061 15.3685 8.09402 15.7551L8.08838 16.0589Z" fill="#373435"/>
<path d="M7.28854 14.988C7.31771 14.5214 7.4137 14.05 7.44193 13.5834C7.25373 12.6597 7.04859 12.495 6.8331 13.0978C6.82369 13.6958 6.81898 14.2985 6.80957 14.8966C6.95194 14.9885 7.12337 15.0225 7.28948 14.9918L7.28854 14.988Z" fill="#8093D0"/>
<path d="M7.16823 15.0615C7.05332 15.0555 6.94129 15.0229 6.84076 14.9662L6.76172 14.93V14.8967C6.76674 14.5977 6.77082 14.2981 6.77395 13.9978C6.77709 13.6975 6.78117 13.3976 6.78618 13.0979V13.0817C6.88029 12.8084 6.98003 12.6856 7.09295 12.6932C7.20587 12.7008 7.33667 12.8084 7.49194 13.575V13.5883C7.47783 13.8235 7.44583 14.0644 7.41478 14.2939C7.38373 14.5234 7.35267 14.7605 7.33856 14.991V15.0348L7.29903 15.0434C7.25617 15.054 7.21234 15.06 7.16823 15.0615ZM6.86335 14.871L6.88217 14.8796C6.99109 14.9454 7.11848 14.9729 7.24446 14.9577C7.25951 14.7339 7.28962 14.5063 7.31974 14.2863C7.34985 14.0664 7.3809 13.8235 7.39596 13.594C7.24822 12.8675 7.12401 12.8027 7.08919 12.7999C7.07037 12.7999 6.99509 12.816 6.88687 13.1141C6.88185 13.4099 6.87778 13.7067 6.87464 14.0045C6.8715 14.3022 6.86774 14.5885 6.86335 14.8634V14.871Z" fill="#373435"/>
<path d="M16.2476 14.8404C16.2862 14.3443 16.2335 13.931 16.2476 13.4454C16.2617 12.8569 16.8367 13.0273 16.8611 13.5673C16.8856 14.1072 16.9138 14.3843 16.943 14.9233C16.71 14.9632 16.4705 14.9344 16.2532 14.8404H16.2476Z" fill="#8093D0"/>
<path d="M16.6629 14.9832C16.5157 14.9884 16.3697 14.9556 16.2385 14.888H16.1971V14.8337C16.2139 14.5686 16.2158 14.3028 16.2027 14.0376C16.1971 13.8471 16.1905 13.65 16.1971 13.4415C16.2046 13.1349 16.3542 13.0244 16.4916 13.0234C16.6798 13.0234 16.8934 13.2282 16.9075 13.5624C16.9217 13.8376 16.9358 14.0385 16.949 14.249C16.9621 14.4594 16.9753 14.6518 16.9894 14.9156V14.967L16.8436 14.9727C16.7836 14.98 16.7233 14.9835 16.6629 14.9832ZM16.2987 14.808C16.4709 14.88 16.6592 14.9037 16.8436 14.8765H16.8887C16.8773 14.6708 16.8648 14.4651 16.8511 14.2595C16.8379 14.0528 16.8247 13.8471 16.8097 13.571C16.7946 13.2948 16.6375 13.1282 16.4935 13.1282C16.3759 13.1282 16.3053 13.2491 16.2978 13.4481C16.2902 13.6472 16.2978 13.849 16.3034 14.0385C16.315 14.2949 16.3135 14.5517 16.2987 14.808Z" fill="#373435"/>
<path d="M16.2169 14.8584C16.2028 14.4947 16.2075 14.0576 16.1934 13.6938C16.2272 13.1939 15.8866 12.4559 15.753 13.2767C15.7105 13.5807 15.6851 13.8869 15.6768 14.1938C15.8318 14.4349 16.013 14.6579 16.2169 14.8584Z" fill="#B9C5EA"/>
<path d="M16.2707 14.9617L16.187 14.9008C16.0214 14.753 15.8767 14.5828 15.7569 14.3951C15.7179 14.3391 15.6777 14.2839 15.6365 14.2294L15.6243 14.2142V14.1951C15.6308 14.0999 15.6355 14.0047 15.6393 13.9285C15.6464 13.709 15.6671 13.4902 15.7014 13.2734C15.7184 13.1667 15.7711 12.8429 15.9395 12.8639C16.1277 12.8867 16.2623 13.3952 16.2416 13.7019C16.2491 13.879 16.251 14.0828 16.2538 14.2799C16.2566 14.477 16.2585 14.6798 16.266 14.8608L16.2707 14.9617ZM15.7268 14.179C15.7598 14.2218 15.7974 14.2742 15.8388 14.3332C15.9363 14.479 16.0448 14.6168 16.1635 14.7455C16.1635 14.5951 16.1569 14.4342 16.155 14.278C16.155 14.0818 16.1503 13.878 16.1428 13.6971C16.1663 13.3429 16.011 12.9705 15.9291 12.961C15.9113 12.9553 15.8463 13.0124 15.8012 13.2857C15.7675 13.4988 15.747 13.7138 15.74 13.9295L15.7268 14.178V14.179ZM11.9393 8.16642C12.1839 6.98563 12.4239 5.80483 12.6685 4.61928C12.7071 4.34217 12.7786 4.09458 13.0666 4.06982H13.4167C13.6274 4.06982 13.7479 4.19647 13.7667 4.45073L13.6952 4.97542C13.7046 5.18968 13.8345 5.31061 14.0932 5.33061C14.4433 5.34489 14.799 5.36489 15.149 5.37917C15.677 5.41345 16.0317 5.642 15.996 6.30762L15.6647 8.06643C15.6587 8.20231 15.6132 8.33337 15.5338 8.44315C15.4545 8.55293 15.3448 8.63654 15.2187 8.6835C15.0606 8.67397 14.8827 8.69302 14.7247 8.6835C14.4508 8.69778 14.2927 8.59589 14.3934 8.23117C14.4941 7.76933 14.6193 7.19131 14.7247 6.72947C14.7632 6.18002 14.5619 6.15145 14.3482 6.11241C14.1657 6.08765 13.9888 6.11241 13.8062 6.08765C13.5371 6.12669 13.4364 6.38856 13.3602 6.68091C13.2454 7.17132 13.1249 7.66268 13.0101 8.15785C12.9574 8.42543 12.9 8.5997 12.7034 8.68254H12.1181C11.8972 8.63366 11.8345 8.45876 11.9299 8.15785L11.9393 8.16642Z" fill="#373435"/>
<path d="M14.8247 8.78603H14.7221C14.6515 8.79808 14.5789 8.7925 14.5109 8.76976C14.4428 8.74703 14.3813 8.70783 14.3316 8.65557C14.2899 8.5891 14.2648 8.51339 14.2584 8.43494C14.2521 8.35649 14.2646 8.27764 14.2949 8.20516L14.3523 7.94043C14.4398 7.53858 14.5405 7.09007 14.6233 6.71583C14.6525 6.27303 14.5349 6.25113 14.341 6.21494C14.166 6.19114 13.9975 6.21494 13.8093 6.19209C13.6211 6.22637 13.5355 6.41587 13.4584 6.70821L13.3021 7.36432L13.1083 8.18325C13.0443 8.4575 12.9926 8.67271 12.7422 8.77841L12.7234 8.78603H12.0967C12.0435 8.77722 11.9927 8.75692 11.9479 8.72653C11.9031 8.69613 11.8653 8.65635 11.837 8.60986C11.8041 8.53491 11.7871 8.45381 11.7871 8.3718C11.7871 8.28979 11.8041 8.20869 11.837 8.13374L11.868 8.03851L12.2445 6.19209L12.5691 4.6104C12.5954 4.41995 12.651 4.01524 13.0575 3.98096H13.416C13.5703 3.98096 13.8348 4.0419 13.8658 4.45708V4.46756L13.7934 4.9932C13.7999 5.10081 13.8442 5.22365 14.0982 5.24269L14.6261 5.2665L15.1503 5.29031C15.2842 5.27763 15.4193 5.29644 15.5449 5.34528C15.6705 5.39412 15.7832 5.47166 15.8743 5.57186C15.9654 5.67206 16.0324 5.7922 16.07 5.92291C16.1076 6.05363 16.1149 6.19137 16.0913 6.32541V6.33874L15.7601 8.0985C15.7508 8.25183 15.6975 8.39909 15.6067 8.52223C15.516 8.64537 15.3917 8.73903 15.2491 8.79174L15.2303 8.79841H14.9715C14.9235 8.78413 14.8736 8.78603 14.8247 8.78603ZM14.7231 8.58034H15.202C15.3064 8.53649 15.3961 8.46315 15.4603 8.36909C15.5246 8.27503 15.5607 8.16422 15.5643 8.04994L15.8946 6.29398C15.9238 5.75882 15.6989 5.51504 15.1418 5.4798L14.6186 5.456L14.0888 5.43124C13.6748 5.39982 13.6014 5.13509 13.5948 4.97987V4.96749L13.6663 4.4447C13.6447 4.20093 13.5214 4.1695 13.4169 4.1695H13.0669C12.8937 4.18474 12.8128 4.30568 12.7677 4.63135L12.4411 6.21971C12.3069 6.87549 12.172 7.53064 12.0365 8.18516L11.9988 8.36894L11.9876 8.35752C11.9804 8.40656 11.988 8.45663 12.0092 8.50131C12.0226 8.52174 12.0401 8.53914 12.0605 8.55241C12.0809 8.56568 12.1038 8.57455 12.1278 8.57844H12.6801C12.8147 8.51369 12.8608 8.38799 12.9097 8.13469L13.1045 7.31099L13.2607 6.65298C13.3181 6.43587 13.4226 6.03592 13.7905 5.9864H13.8178C13.9891 6.00926 14.1679 5.9864 14.3598 6.01116H14.373C14.6421 6.06068 14.8614 6.14924 14.8209 6.73392V6.75011C14.7353 7.1253 14.6327 7.57667 14.549 7.98042L14.4897 8.25086C14.4521 8.38704 14.4521 8.48036 14.4897 8.52607C14.5273 8.57177 14.6374 8.58415 14.7184 8.58034H14.7231Z" fill="#FEFEFE"/>
<path d="M7.4044 9.53258C7.64435 8.2737 7.88902 7.01483 8.12991 5.76071C8.12678 5.70373 8.13557 5.64672 8.15569 5.59341C8.17582 5.5401 8.20683 5.49169 8.24671 5.45133C8.28658 5.41098 8.33443 5.3796 8.38711 5.35923C8.43979 5.33887 8.49612 5.32998 8.55243 5.33315H10.7619C10.9724 5.32686 11.1807 5.37877 11.3642 5.4833C11.5478 5.58783 11.6997 5.74102 11.8036 5.9264C11.9515 6.19743 12.0136 6.5079 11.9815 6.81581C11.9342 7.34449 11.7027 7.83894 11.3284 8.21086C11.0219 8.47277 10.6464 8.63827 10.2481 8.68698C9.87172 8.69651 9.49532 8.70127 9.11891 8.71174C8.90248 8.6927 8.68699 8.75078 8.63429 8.926C8.56748 9.16406 8.51949 9.40213 8.45174 9.63543C8.42824 9.68797 8.39378 9.73475 8.35074 9.77255C8.3077 9.81036 8.25708 9.83829 8.20237 9.85445C7.98594 9.85921 7.76574 9.85921 7.54931 9.86397C7.31782 9.86778 7.36581 9.72875 7.4044 9.53258ZM8.94577 7.37478C9.00787 7.04435 9.08504 6.67011 9.14244 6.37872C9.17311 6.29143 9.23078 6.21648 9.3069 6.16501C9.38302 6.11355 9.47352 6.08831 9.56495 6.09304C9.79275 6.07669 10.0215 6.10647 10.2378 6.18065C10.3325 6.21934 10.418 6.27795 10.4886 6.35259C10.5592 6.42724 10.6133 6.51622 10.6474 6.61363C10.6815 6.71105 10.6947 6.81468 10.6862 6.91767C10.6777 7.02065 10.6477 7.12063 10.5982 7.21099C10.5145 7.37004 10.4006 7.51081 10.263 7.6252C10.1254 7.73959 9.96687 7.82535 9.79644 7.87757C9.63994 7.91894 9.47802 7.93532 9.31653 7.92613C8.90342 7.88233 8.86955 7.77092 8.94012 7.37192L8.94577 7.37478Z" fill="#373435"/>
<path d="M7.53893 9.96474C7.49886 9.96883 7.45839 9.96367 7.42058 9.94965C7.38277 9.93563 7.34859 9.91311 7.32061 9.8838C7.2491 9.79714 7.27356 9.68001 7.29897 9.55622L7.30744 9.51337C7.43981 8.82013 7.57312 8.12689 7.70737 7.43365L8.03013 5.75577C8.02609 5.6901 8.03554 5.6243 8.05789 5.56251C8.08025 5.50072 8.11501 5.44429 8.15999 5.39677C8.21113 5.34249 8.27302 5.29975 8.34162 5.27136C8.41022 5.24297 8.48397 5.22957 8.55804 5.23203H10.7628C10.9917 5.22496 11.2181 5.28171 11.4173 5.39608C11.6164 5.51046 11.7807 5.67804 11.892 5.88052C12.0481 6.16807 12.1137 6.49695 12.0802 6.82325C12.0312 7.37588 11.7897 7.89291 11.3989 8.2821L11.3877 8.29258C11.067 8.56564 10.6745 8.73807 10.2584 8.7887C10.0646 8.79442 9.87545 8.79727 9.68725 8.80108L9.12264 8.81346H9.11135C8.95985 8.80013 8.76883 8.8287 8.73495 8.9563C8.70107 9.0839 8.67378 9.18865 8.64085 9.30578C8.60791 9.4229 8.58251 9.54384 8.54675 9.66478C8.52019 9.73271 8.47881 9.79369 8.42569 9.84316C8.37257 9.89263 8.30908 9.92931 8.23998 9.95045L8.2221 9.95807H8.20328L7.87863 9.96283L7.55022 9.96759L7.53893 9.96474ZM7.47588 9.75524C7.49917 9.76155 7.52336 9.7638 7.5474 9.76191L7.87863 9.75714H8.18164C8.28327 9.71144 8.34161 9.66192 8.3576 9.6105C8.39054 9.49337 8.41877 9.3772 8.45171 9.26007C8.48464 9.14294 8.51005 9.02201 8.54581 8.90202C8.60697 8.69824 8.82811 8.58873 9.13017 8.61635L9.68913 8.60397L10.2537 8.59159C10.6284 8.54335 10.9813 8.38661 11.27 8.14022C11.6247 7.78614 11.8443 7.31668 11.8902 6.81468C11.9208 6.52487 11.8623 6.23257 11.7227 5.97765C11.6251 5.80959 11.4847 5.6711 11.3162 5.57663C11.1477 5.48217 10.9573 5.43518 10.7647 5.44058H8.55333C8.50729 5.4387 8.46137 5.44682 8.41868 5.46439C8.376 5.48197 8.33752 5.50859 8.30585 5.54247C8.27861 5.57065 8.25776 5.60451 8.24476 5.64167C8.23176 5.67884 8.22692 5.71843 8.23057 5.75768V5.78625L7.90498 7.4784L7.50505 9.55812L7.49564 9.60288C7.48131 9.65427 7.47496 9.7076 7.47682 9.76096L7.47588 9.75524ZM9.40683 8.02976H9.30708C9.22766 8.03171 9.14865 8.01765 9.07465 7.98839C9.00066 7.95912 8.93316 7.91524 8.8761 7.8593C8.79235 7.74599 8.79988 7.59553 8.84317 7.35651L8.87704 7.16606L8.88363 7.17273C8.91656 7.00227 8.95232 6.82706 8.98526 6.66232L9.05395 6.3357C9.09298 6.22989 9.16447 6.13952 9.25795 6.07783C9.35142 6.01613 9.46197 5.98637 9.57339 5.99289C9.81102 5.97678 10.0494 6.00916 10.2744 6.08811C10.3738 6.12418 10.4646 6.18083 10.5411 6.25446C10.6176 6.32808 10.678 6.41705 10.7186 6.51567C10.7634 6.63441 10.7839 6.76108 10.7791 6.88807C10.7742 7.01505 10.744 7.13974 10.6904 7.25462L10.6838 7.267C10.594 7.43647 10.472 7.58636 10.325 7.70809C10.1779 7.82982 10.0085 7.92101 9.82652 7.97643C9.68865 8.00966 9.5476 8.02754 9.40589 8.02976H9.40683ZM9.01819 7.5422C9.00346 7.60613 9.01042 7.67322 9.03795 7.73265C9.07089 7.77646 9.16311 7.80502 9.32778 7.82312C9.47857 7.83068 9.62961 7.81495 9.7757 7.77646C9.93209 7.72799 10.0775 7.6488 10.2036 7.54341C10.3297 7.43802 10.434 7.30849 10.5106 7.16225C10.5519 7.07339 10.5753 6.97709 10.5793 6.87898C10.5833 6.78087 10.568 6.68293 10.5342 6.5909C10.5037 6.51809 10.4586 6.45248 10.4017 6.39823C10.3448 6.34397 10.2775 6.30225 10.2039 6.2757C9.99992 6.20612 9.78426 6.1786 9.56962 6.19476C9.49845 6.18883 9.42735 6.20717 9.36767 6.24686C9.30798 6.28656 9.26314 6.34531 9.24027 6.41378L9.18287 6.69946C9.1377 6.92419 9.08877 7.16892 9.04642 7.39365L9.01819 7.5422Z" fill="#FEFEFE"/>
<path d="M15.7996 9.53258C16.0395 8.2737 16.2842 7.01483 16.5251 5.76071C16.522 5.70373 16.5307 5.64672 16.5509 5.59341C16.571 5.5401 16.602 5.49169 16.6419 5.45133C16.6818 5.41098 16.7296 5.3796 16.7823 5.35923C16.835 5.33887 16.8913 5.32998 16.9476 5.33315H19.1571C19.3676 5.32686 19.5759 5.37877 19.7594 5.4833C19.943 5.58783 20.0949 5.74102 20.1988 5.9264C20.3467 6.19743 20.4088 6.5079 20.3766 6.81581C20.3294 7.34449 20.0979 7.83894 19.7236 8.21086C19.4171 8.47277 19.0416 8.63827 18.6433 8.68698C18.2669 8.69651 17.8905 8.70127 17.5141 8.71174C17.2977 8.6927 17.0822 8.75078 17.0295 8.926C16.9627 9.16406 16.9147 9.40213 16.8469 9.63543C16.8234 9.68797 16.789 9.73475 16.7459 9.77255C16.7029 9.81036 16.6523 9.83829 16.5976 9.85445C16.3811 9.85921 16.1609 9.85921 15.9445 9.86397C15.713 9.86778 15.7572 9.72875 15.7996 9.53258ZM17.341 7.37478C17.4031 7.04435 17.4802 6.67011 17.5376 6.37872C17.5683 6.29143 17.626 6.21648 17.7021 6.16501C17.7782 6.11355 17.8687 6.08831 17.9601 6.09304C18.1879 6.07669 18.4167 6.10647 18.633 6.18065C18.7276 6.21934 18.8131 6.27795 18.8838 6.35259C18.9544 6.42724 19.0085 6.51622 19.0426 6.61363C19.0767 6.71105 19.0899 6.81468 19.0814 6.91767C19.0729 7.02065 19.0429 7.12063 18.9934 7.21099C18.9097 7.37004 18.7958 7.51081 18.6582 7.6252C18.5206 7.73959 18.362 7.82535 18.1916 7.87757C18.0351 7.91894 17.8732 7.93532 17.7117 7.92613C17.2986 7.88233 17.2647 7.77092 17.3353 7.37192L17.341 7.37478Z" fill="#373435"/>
<path d="M15.9325 9.96474C15.8924 9.96876 15.852 9.96357 15.8142 9.94955C15.7764 9.93553 15.7422 9.91306 15.7142 9.8838C15.6427 9.79714 15.6671 9.68001 15.6925 9.55622L15.701 9.51337C15.8327 8.82203 15.9654 8.13133 16.099 7.44126L16.4237 5.75577C16.4196 5.6901 16.4291 5.6243 16.4514 5.56251C16.4738 5.50072 16.5086 5.44429 16.5535 5.39677C16.6047 5.34249 16.6666 5.29975 16.7352 5.27136C16.8038 5.24297 16.8775 5.22957 16.9516 5.23203H19.1564C19.3853 5.22496 19.6117 5.28171 19.8108 5.39608C20.01 5.51046 20.1742 5.67804 20.2856 5.88052C20.4416 6.16809 20.5072 6.49695 20.4738 6.82325C20.4247 7.37586 20.1832 7.89286 19.7925 8.2821L19.7812 8.29258C19.4605 8.56564 19.0681 8.73807 18.652 8.7887C18.4581 8.79442 18.269 8.79727 18.0808 8.80108L17.5162 8.81346H17.5049C17.3525 8.80013 17.1624 8.8287 17.1285 8.9563C17.0946 9.0839 17.0673 9.18865 17.0344 9.30482C17.0015 9.421 16.9761 9.54384 16.9403 9.66382C16.9137 9.73176 16.8724 9.79274 16.8192 9.84221C16.7661 9.89168 16.7026 9.92836 16.6335 9.9495L16.6157 9.95712H16.5968L16.2722 9.96188L15.9438 9.96664L15.9325 9.96474ZM15.8694 9.75524C15.8928 9.76134 15.9169 9.76359 15.941 9.76191L16.2722 9.75714H16.5752C16.6768 9.71144 16.7352 9.66192 16.7512 9.6105C16.7841 9.49337 16.8133 9.37624 16.8453 9.26007C16.8773 9.14389 16.9036 9.02296 16.9394 8.90297C17.0005 8.69919 17.2217 8.58968 17.5237 8.6173L18.0827 8.60492L18.6473 8.59254C19.022 8.5443 19.3749 8.38756 19.6636 8.14117C20.0182 7.78709 20.2378 7.31763 20.2837 6.81563C20.3144 6.52582 20.2559 6.2335 20.1162 5.9786C20.0186 5.81054 19.8783 5.67205 19.7098 5.57759C19.5413 5.48312 19.3508 5.43613 19.1583 5.44153H16.9469C16.9008 5.43952 16.8549 5.44759 16.8122 5.46517C16.7695 5.48275 16.731 5.50944 16.6994 5.54342C16.6722 5.57161 16.6513 5.60546 16.6383 5.64263C16.6253 5.67979 16.6205 5.71938 16.6241 5.75863V5.7872L16.2976 7.48697L15.8995 9.55908L15.8901 9.60383C15.8758 9.65522 15.8695 9.70855 15.8713 9.76191L15.8694 9.75524ZM17.8004 8.02976H17.7006C17.6212 8.03171 17.5422 8.01765 17.4682 7.98838C17.3942 7.95912 17.3267 7.91524 17.2697 7.8593C17.1859 7.74598 17.1934 7.59553 17.2367 7.35651L17.2706 7.16606L17.2772 7.17273C17.3101 7.00132 17.3459 6.82515 17.3788 6.65946L17.4475 6.33474C17.4861 6.22868 17.5576 6.13804 17.6511 6.07629C17.7447 6.01454 17.8554 5.98495 17.9669 5.99193C18.2046 5.97611 18.4429 6.00849 18.668 6.08716C18.7674 6.12322 18.8582 6.17988 18.9347 6.25351C19.0111 6.32713 19.0716 6.4161 19.1121 6.51472C19.1569 6.63346 19.1775 6.76013 19.1726 6.88711C19.1678 7.0141 19.1376 7.13878 19.0839 7.25367L19.0773 7.26605C18.9875 7.43552 18.8656 7.58541 18.7185 7.70714C18.5714 7.82887 18.402 7.92006 18.2201 7.97548C18.0825 8.00896 17.9418 8.02716 17.8004 8.02976ZM17.4108 7.54315C17.3961 7.60708 17.403 7.67417 17.4306 7.73361C17.4635 7.77741 17.5557 7.80598 17.7204 7.82407C17.8712 7.83162 18.0222 7.81588 18.1683 7.77741C18.3247 7.72895 18.4701 7.64975 18.5962 7.54436C18.7223 7.43897 18.8267 7.30945 18.9032 7.16321C18.9445 7.07434 18.9679 6.97804 18.9719 6.87993C18.976 6.78182 18.9606 6.68388 18.9268 6.59185C18.8963 6.51904 18.8512 6.45344 18.7943 6.39918C18.7375 6.34492 18.6701 6.3032 18.5965 6.27666C18.3925 6.207 18.1769 6.17947 17.9622 6.19572C17.8911 6.18995 17.8201 6.20836 17.7604 6.24803C17.7008 6.2877 17.6559 6.34636 17.6329 6.41473L17.5755 6.70041C17.5303 6.92609 17.4814 7.17178 17.439 7.39651L17.4108 7.54315Z" fill="#FEFEFE"/>
<path d="M1.57171 15.2575C1.45919 15.1482 1.36397 15.022 1.28941 14.8833C1.17328 14.6693 1.11699 14.4273 1.12662 14.1834C0.881954 9.96205 1.09745 6.27016 2.42709 3.25342C2.58988 2.88395 2.61529 2.77253 2.955 2.60208C3.9928 2.21702 5.10604 2.08648 6.20336 2.22118C6.23723 2.12595 6.30405 2.03073 6.27487 1.9355C5.28184 1.85506 4.28248 1.93542 3.31446 2.17357C2.65576 2.28022 2.01399 2.39734 1.8559 3.45625C0.527194 7.01673 0.623177 10.3887 0.761505 13.7016C0.760511 13.9405 0.796063 14.1782 0.866898 14.4062C1.12568 15.2413 1.37598 15.2128 1.57265 15.2566L1.57171 15.2575ZM6.6748 14.729C6.6748 13.8501 6.60329 12.9712 6.60329 12.0884C6.56811 11.5848 6.45999 11.0891 6.2824 10.6172C6.08993 10.2739 5.8696 9.94747 5.6237 9.64114C6.37136 11.079 6.60411 12.7344 6.2824 14.3262C6.41603 14.4615 6.53553 14.5976 6.6748 14.729Z" fill="#EBEFFF"/>
<path d="M6.74597 14.9035L6.67916 14.8778C6.42809 14.7686 6.21274 14.5896 6.05809 14.3616L5.99316 14.2788H6.05433C6.06845 13.9636 6.0628 13.6751 6.05433 13.3951C6.04868 13.0999 6.0421 12.7952 6.05904 12.46V12.4038L6.11455 12.4124C6.26806 12.4275 6.41309 12.4906 6.52947 12.593C6.64585 12.6954 6.72778 12.832 6.76385 12.9837V12.999L6.75162 13.9084L6.73938 14.8321L6.74597 14.9035ZM6.1522 14.3188C6.28152 14.501 6.45098 14.6504 6.64717 14.7549C6.64717 14.454 6.65469 14.1836 6.65846 13.9065C6.65846 13.6208 6.66599 13.3284 6.67069 13.0047C6.64147 12.8825 6.57734 12.7717 6.4863 12.6862C6.39526 12.6007 6.28135 12.5442 6.15878 12.5238C6.14561 12.8323 6.15125 13.117 6.15878 13.3932C6.15878 13.6855 6.16819 13.9874 6.1522 14.3188Z" fill="#373435"/>
<path d="M7.99527 15.9724C7.79902 15.894 7.63369 15.7525 7.52476 15.5696C7.49089 14.0003 7.46172 12.4272 7.43066 10.8569L7.66686 11.095C7.71973 11.4258 7.74398 11.7607 7.73931 12.0958L7.81177 12.2863C7.81044 13.5174 7.87169 14.7477 7.99527 15.9724Z" fill="#EBEFFF"/>
<path d="M8.07392 16.3213L8.00805 16.2994C7.73436 16.2019 7.50781 16.0023 7.37475 15.7413L7.36816 15.728V15.709C7.36816 15.1862 7.37757 14.6453 7.37757 14.1159V14.1025L7.38416 14.0911C7.52625 13.8292 7.64858 13.6607 7.78221 13.6873C7.88666 13.7083 8.00429 13.8311 8.08333 14.5777C8.08333 15.1329 8.07392 15.6985 8.07392 16.2518V16.3213ZM7.46885 15.7023C7.57992 15.9137 7.75784 16.0814 7.97417 16.1784C7.97417 15.648 7.97888 15.1081 7.98358 14.5844C7.91019 13.8902 7.80479 13.7949 7.76339 13.7864C7.72198 13.7778 7.64106 13.8311 7.48108 14.1282C7.47638 14.652 7.47638 15.1862 7.46885 15.7033V15.7023Z" fill="#373435"/>
<path d="M6.34638 10.6399C6.34928 10.5592 6.3378 10.4785 6.3125 10.4019C6.35108 10.4114 6.38966 10.4161 6.4273 10.4266L7.03614 10.9275C7.12092 10.8911 7.18841 10.8228 7.22434 10.737C7.26284 10.7364 7.30098 10.7447 7.33586 10.7612C7.37075 10.7777 7.40147 10.802 7.42571 10.8323C7.43512 11.2313 7.40689 11.6246 7.4163 12.0226C7.4795 12.0771 7.52041 12.1535 7.53111 12.2368C7.7832 12.247 8.03453 12.2715 8.28391 12.3102C8.29803 12.373 8.31779 12.4121 8.3319 12.4759C8.05048 12.4439 7.76642 12.4439 7.485 12.4759V12.6558C7.70571 12.6444 7.92697 12.6607 8.1437 12.7044L8.16723 12.8358C7.93291 12.8074 7.6959 12.8106 7.46241 12.8453C7.49629 13.8252 7.49629 14.806 7.46241 15.7859C7.38525 15.6012 7.23751 15.4212 7.15564 15.2364C7.30176 13.9796 7.321 12.711 7.21305 11.4503C6.98979 11.1161 6.69316 10.8388 6.34638 10.6399Z" fill="#373435"/>
<path d="M7.32851 15.8461C7.28682 15.7554 7.23805 15.6681 7.18266 15.5852C7.12267 15.494 7.06921 15.3985 7.02269 15.2995L7.00481 15.2605L7.01045 15.2176C7.1531 13.9848 7.17264 12.7406 7.0688 11.5039C6.85629 11.2051 6.58289 10.9561 6.26706 10.7735L6.18237 10.7182L6.20119 10.6173C6.20153 10.5807 6.19581 10.5444 6.18425 10.5097C6.17781 10.4848 6.17216 10.4597 6.16731 10.4345L6.12402 10.2012L6.35175 10.2583L6.40068 10.2688C6.42232 10.2688 6.44491 10.2774 6.46655 10.2831L6.49854 10.2916L7.04809 10.743C7.06418 10.7279 7.07672 10.7094 7.08479 10.6887L7.12149 10.5935H7.22594C7.28888 10.593 7.35105 10.6075 7.40744 10.6358C7.46383 10.6641 7.51286 10.7054 7.55059 10.7563L7.576 10.7935V10.8392C7.58071 11.042 7.576 11.2458 7.57129 11.442C7.57129 11.6162 7.56283 11.7962 7.56565 11.9733C7.59815 12.0109 7.62538 12.0529 7.64658 12.0981C7.80278 12.1047 7.95711 12.1257 8.10767 12.1447L8.30152 12.1685L8.40691 12.1809L8.43044 12.2857C8.43586 12.3088 8.44245 12.3317 8.4502 12.3542C8.45961 12.3837 8.46996 12.4142 8.47843 12.4494L8.52454 12.6513L8.32034 12.6351H8.28364L8.35233 13.016L8.15378 12.9951C7.97601 12.9744 7.79667 12.9716 7.61835 12.9865C7.64765 13.9239 7.64765 14.8621 7.61835 15.7995L7.32851 15.8461ZM7.31534 15.2138L7.33322 15.2481V15.0396C7.32883 15.098 7.32287 15.1561 7.31534 15.2138ZM7.11302 11.062C7.17255 11.1263 7.22758 11.1947 7.2777 11.2667V10.9373C7.23054 10.9884 7.17478 11.0306 7.11302 11.062Z" fill="#373435"/>
<path d="M6.93066 1.98118C7.36479 1.92347 7.78304 1.77807 8.16056 1.55361C8.90907 1.12947 9.74391 0.885114 10.6006 0.839424C10.2462 0.677438 9.84743 0.643813 9.47139 0.744198C8.5479 0.971018 7.68213 1.39253 6.93066 1.98118ZM11.6291 1.45363C13.6897 0.853343 15.888 0.9537 17.8868 1.7393C15.9219 0.865478 13.7167 0.714892 11.6536 1.31365C11.6526 1.41078 11.6291 1.36221 11.6291 1.45363Z" fill="#EBEFFF"/>
<defs>
<linearGradient id="paint0_linear_2525_1188" x1="6.29023" y1="-0.592351" x2="12.4219" y2="19.5859" gradientUnits="userSpaceOnUse">
<stop stop-color="#8A9FE0"/>
<stop offset="0.588" stop-color="#7182B8"/>
<stop offset="1" stop-color="#576490"/>
</linearGradient>
</defs>
</svg>
