<svg width="20" height="20" viewBox="0 0 20 20" fill="none" xmlns="http://www.w3.org/2000/svg">
<path d="M10.0806 19.2201C15.3238 19.2201 19.5742 14.9188 19.5742 9.61296C19.5742 4.3071 15.3238 0.00585938 10.0806 0.00585938C4.83737 0.00585938 0.586914 4.3071 0.586914 9.61296C0.586914 14.9188 4.83737 19.2201 10.0806 19.2201Z" fill="#1A171B"/>
<path d="M14.2119 3.55533C13.2487 3.58933 12.4081 4.12651 11.7823 4.86955C11.0894 5.68428 10.6285 6.65062 10.2963 7.637C9.70224 7.14426 9.24388 6.50636 8.29073 6.22821C7.554 6.01415 6.7802 6.10257 6.06862 6.63906C5.73152 6.89388 5.4993 7.27906 5.38886 7.64113C5.10294 8.5821 5.68947 9.41949 5.95588 9.72017L6.53833 10.3518C6.65841 10.4757 6.9476 10.7988 6.80623 11.262C6.65344 11.7657 6.05341 12.0918 5.43796 11.8996C5.16309 11.8148 4.76821 11.6076 4.85662 11.3158C4.89319 11.1964 4.97759 11.1071 5.02283 11.0039C5.06437 10.9153 5.08417 10.8488 5.09678 10.8097C5.20922 10.4382 5.05562 9.95486 4.66237 9.83215C4.29553 9.71836 3.92016 9.80851 3.77464 10.2865C3.60961 10.8296 3.86639 11.8151 5.24193 12.2443C6.85355 12.7454 8.21685 11.8574 8.41021 10.6992C8.532 9.97378 8.20832 9.43488 7.61534 8.74174L7.1322 8.20104C6.83953 7.90517 6.73903 7.40088 7.04194 7.01329C7.29753 6.68635 7.66155 6.54682 8.25772 6.71089C9.12795 6.95002 9.51585 7.56104 10.1631 8.05386C9.8959 8.94094 9.72123 9.83132 9.5631 10.6298L9.46675 11.225C9.00409 13.6809 8.65089 15.0294 7.73305 15.8036C7.54815 15.9367 7.28381 16.1359 6.88537 16.1498C6.67651 16.1563 6.60902 16.0109 6.60612 15.9476C6.60115 15.7992 6.72472 15.7312 6.80682 15.6644C6.9295 15.5967 7.115 15.4844 7.10239 15.1247C7.08904 14.6996 6.74104 14.331 6.23802 14.3479C5.86124 14.3608 5.28695 14.7197 5.30853 15.3765C5.33101 16.0549 5.95588 16.5633 6.89798 16.5312C7.40159 16.5137 8.52614 16.3062 9.63445 14.973C10.9244 13.4447 11.2852 11.6927 11.5565 10.4104L11.8594 8.71742C12.0277 8.73784 12.2077 8.75142 12.4034 8.75615C14.01 8.79045 14.8136 7.94833 14.8255 7.3358C14.8335 6.9651 14.5852 6.60033 14.2375 6.60859C13.9887 6.61572 13.6761 6.78332 13.601 7.13158C13.5277 7.47323 14.1123 7.78156 13.6554 8.08103C13.3308 8.29359 12.749 8.4434 11.9295 8.32166L12.0785 7.48832C12.3826 5.90802 12.7577 3.96416 14.1806 3.91688C14.2843 3.91155 14.6637 3.9216 14.6725 4.17552C14.6751 4.26033 14.6544 4.28195 14.5562 4.47611C14.4563 4.6275 14.4187 4.75637 14.4233 4.90446C14.4371 5.30795 14.7403 5.57312 15.1787 5.55714C15.7659 5.53792 15.9347 4.95947 15.9251 4.6624C15.9014 3.96439 15.1744 3.52343 14.2119 3.55533Z" fill="white"/>
</svg>
