<svg width="14" height="20" viewBox="0 0 14 20" fill="none" xmlns="http://www.w3.org/2000/svg">
<path d="M1.79478 9.75419C3.3555 10.3093 5.002 10.5766 6.65599 10.5432C8.31003 10.5764 9.95652 10.3089 11.5172 9.75353C12.7354 9.27271 13.1675 8.73832 13.1675 8.43078V6.07959C12.7415 6.36823 12.2846 6.60697 11.8054 6.79123C10.1542 7.38958 8.4097 7.68129 6.65599 7.65234C4.90244 7.68075 3.15815 7.38951 1.50656 6.79255C1.02715 6.60828 0.570164 6.36907 0.144531 6.07959V8.42747C0.144531 8.74096 0.577845 9.27271 1.79478 9.75419ZM1.79478 14.1887C2.34613 14.4015 2.91469 14.5655 3.49405 14.6788C4.53586 14.8827 5.59488 14.9831 6.65599 14.9784C7.71709 14.9833 8.77611 14.8832 9.81794 14.6794C10.3973 14.5661 10.9659 14.4021 11.5172 14.1894C12.7354 13.7085 13.1675 13.1742 13.1675 12.8666V10.6246C12.8154 10.8389 12.4454 11.0215 12.0616 11.1702C10.3269 11.7917 8.49591 12.0926 6.65599 12.0584C4.81588 12.0915 2.98487 11.7895 1.25036 11.1669C0.8668 11.0178 0.496792 10.8353 0.144531 10.6213V12.8653C0.144531 13.1735 0.577845 13.7059 1.79478 14.1887ZM6.65599 19.5055C10.2506 19.5055 13.1675 18.3521 13.1675 16.9301V15.0538C12.8472 15.2492 12.5117 15.4177 12.1642 15.5578L12.0616 15.5994C10.3273 16.2228 8.49623 16.5254 6.65599 16.4929C4.81569 16.5264 2.9845 16.2237 1.25036 15.5994C1.21507 15.5862 1.18108 15.571 1.14775 15.5578C0.800334 15.4177 0.46481 15.2492 0.144531 15.0538V16.9301C0.144531 18.3521 3.06139 19.5055 6.65599 19.5055Z" fill="#FFDA44"/>
<path d="M6.65599 6.1376C10.2522 6.1376 13.1675 4.98456 13.1675 3.56221C13.1675 2.13986 10.2522 0.986816 6.65599 0.986816C3.05981 0.986816 0.144531 2.13986 0.144531 3.56221C0.144531 4.98456 3.05981 6.1376 6.65599 6.1376Z" fill="#FFDA44"/>
</svg>
