<svg width="19" height="19" viewBox="0 0 19 19" fill="none" xmlns="http://www.w3.org/2000/svg">
<g clip-path="url(#clip0_2379_226)">
<path d="M18.9735 9.47647C18.9735 14.7099 14.7308 18.9527 9.49706 18.9527C4.26315 18.9527 0.0205078 14.7099 0.0205078 9.47647C0.0205078 4.24271 4.2633 0 9.49706 0C14.7309 0 18.9735 4.24271 18.9735 9.47647Z" fill="#DD4814"/>
<path d="M3.05254 8.21104C2.35347 8.21104 1.78711 8.77741 1.78711 9.47647C1.78711 10.1752 2.35347 10.7416 3.05254 10.7416C3.75131 10.7416 4.31767 10.1752 4.31767 9.47647C4.31767 8.77741 3.75131 8.21104 3.05254 8.21104ZM12.0861 13.9614C11.481 14.3109 11.2734 15.0843 11.6229 15.6891C11.9721 16.2943 12.7455 16.5017 13.3507 16.1522C13.9558 15.803 14.1633 15.0297 13.8138 14.4244C13.4646 13.8197 12.6908 13.6122 12.0861 13.9614ZM5.80079 9.47647C5.80079 8.22618 6.42185 7.12151 7.37207 6.45265L6.44708 4.90341C5.34018 5.64337 4.5165 6.77402 4.17421 8.0983C4.57365 8.42413 4.82926 8.92028 4.82926 9.4764C4.82926 10.0322 4.57365 10.5284 4.17421 10.8543C4.51606 12.1789 5.33974 13.3096 6.44708 14.0496L7.37207 12.4999C6.42185 11.8314 5.80079 10.7268 5.80079 9.47647ZM9.49629 5.7806C11.4269 5.7806 13.0109 7.26082 13.1772 9.14865L14.9799 9.12208C14.8913 7.7284 14.2824 6.47722 13.347 5.5572C12.8659 5.73896 12.3101 5.71113 11.8299 5.4343C11.3488 5.15664 11.0471 4.68825 10.9646 4.17985C10.4864 4.0475 9.99244 3.98034 9.49621 3.9802C8.65128 3.97934 7.81761 4.174 7.06043 4.54894L7.93955 6.12438C8.42711 5.89744 8.95849 5.7801 9.49629 5.7806ZM9.49629 13.172C8.95852 13.1725 8.42717 13.0552 7.93962 12.8283L7.0605 14.4036C7.81759 14.7789 8.65133 14.9738 9.49636 14.9729C9.9926 14.9728 10.4865 14.9054 10.9647 14.7727C11.0472 14.2643 11.3489 13.7964 11.8299 13.5183C12.3106 13.2409 12.866 13.2136 13.347 13.3954C14.2825 12.4754 14.8913 11.2242 14.9801 9.8305L13.1768 9.80393C13.0109 11.6923 11.427 13.172 9.49629 13.172ZM12.0856 4.99077C12.6908 5.34019 13.4642 5.13327 13.8134 4.52809C14.1629 3.92291 13.9559 3.14947 13.3507 2.7999C12.7455 2.45078 11.9721 2.65814 11.6225 3.26332C11.2735 3.86821 11.4809 4.64157 12.0856 4.99077Z" fill="white"/>
</g>
<defs>
<clipPath id="clip0_2379_226">
<rect width="19" height="19" fill="white"/>
</clipPath>
</defs>
</svg>
