<svg width="19" height="19" viewBox="0 0 19 19" fill="none" xmlns="http://www.w3.org/2000/svg">
<path d="M18.2405 2.10714L14.4503 0.260218C14.2362 0.155952 13.9954 0.121608 13.7612 0.16194C13.527 0.202273 13.3109 0.315287 13.143 0.485339L0.735375 11.9332C0.656535 12.006 0.593574 12.0946 0.55052 12.1933C0.507467 12.2921 0.485271 12.3989 0.485352 12.5069C0.485433 12.6149 0.50779 12.7216 0.550992 12.8203C0.594194 12.9191 0.657288 13.0076 0.736237 13.0802L1.74968 14.0125C1.88208 14.1344 2.05244 14.2055 2.23121 14.2135C2.40999 14.2216 2.58591 14.166 2.72848 14.0566L17.6701 2.58603C18.1714 2.20123 18.8914 2.56306 18.8914 3.19973V3.15523C18.8914 2.93623 18.8303 2.72168 18.7151 2.53625C18.6 2.35082 18.4355 2.20218 18.2405 2.10714Z" fill="#19376D"/>
<g filter="url(#filter0_d_2525_1256)">
<path d="M18.2405 16.702L14.4503 18.5486C14.2363 18.6529 13.9955 18.6873 13.7612 18.647C13.527 18.6068 13.311 18.4938 13.143 18.3238L0.735375 6.87579C0.656535 6.80304 0.593574 6.71444 0.55052 6.61565C0.507467 6.51687 0.485271 6.41007 0.485352 6.30211C0.485433 6.19414 0.50779 6.08738 0.550992 5.98866C0.594194 5.88994 0.657288 5.80143 0.736237 5.72881L1.74968 4.79647C1.88208 4.67464 2.05244 4.60354 2.23121 4.59549C2.40999 4.58745 2.58591 4.64296 2.72848 4.75241L17.6701 16.2228C18.1714 16.6078 18.8914 16.2459 18.8914 15.6093V15.6538C18.8914 15.8728 18.8303 16.0873 18.7151 16.2727C18.6 16.4582 18.4355 16.607 18.2405 16.702Z" fill="#2D569F"/>
</g>
<g filter="url(#filter1_d_2525_1256)">
<path d="M14.452 18.5491C14.2379 18.6533 13.997 18.6876 13.7628 18.6472C13.5286 18.6069 13.3125 18.4939 13.1445 18.3238C13.5688 18.7531 14.2942 18.449 14.2942 17.8419V0.966675C14.2942 0.359517 13.5688 0.0554292 13.1445 0.484875C13.3125 0.314842 13.5286 0.201833 13.7628 0.161477C13.997 0.121121 14.2379 0.155413 14.452 0.259609L18.2415 2.10391C18.4366 2.19887 18.6013 2.34767 18.7165 2.53317C18.8318 2.71866 18.8929 2.93333 18.8929 3.15244V15.6565C18.8929 15.8757 18.8318 16.0903 18.7165 16.2758C18.6013 16.4613 18.4366 16.6101 18.2415 16.7051L14.452 18.5491Z" fill="#19376D"/>
</g>
<path opacity="0.25" fill-rule="evenodd" clip-rule="evenodd" d="M13.5296 18.5848C13.6759 18.6425 13.8325 18.6692 13.9894 18.6631C14.1464 18.657 14.3004 18.6182 14.442 18.5493L18.2292 16.7052C18.4242 16.6101 18.5888 16.4613 18.704 16.2758C18.8191 16.0903 18.8802 15.8757 18.8802 15.6566V3.15252C18.8802 2.93345 18.8191 2.71882 18.704 2.53333C18.5888 2.34783 18.4242 2.19901 18.2292 2.10399L14.442 0.26012C14.228 0.155923 13.9873 0.121616 13.7532 0.161948C13.519 0.20228 13.3031 0.315257 13.1352 0.485241L5.88508 7.17867L2.7272 4.75294C2.58475 4.64349 2.40893 4.58796 2.23024 4.59598C2.05156 4.604 1.88129 4.67507 1.74897 4.79686L0.736107 5.72919C0.657194 5.80186 0.594132 5.89038 0.550954 5.98911C0.507777 6.08784 0.485433 6.1946 0.485352 6.30257C0.485271 6.41053 0.507454 6.51733 0.550483 6.61612C0.593512 6.71492 0.656441 6.80354 0.735244 6.87632L3.47392 9.40457L0.735388 11.933C0.656565 12.0057 0.593619 12.0944 0.550577 12.1932C0.507535 12.2919 0.485345 12.3987 0.485426 12.5067C0.485507 12.6147 0.507858 12.7215 0.551048 12.8202C0.594238 12.9189 0.657318 13.0074 0.73625 13.0801L1.74912 14.0124C1.88141 14.1342 2.05168 14.2053 2.23036 14.2134C2.40905 14.2214 2.58488 14.1659 2.72735 14.0565L5.88537 11.6306L13.1355 18.324C13.2476 18.4377 13.3818 18.5265 13.5296 18.5848ZM14.2843 5.17875L8.78313 9.40457L14.2843 13.6302V5.17875Z" fill="url(#paint0_linear_2525_1256)"/>
<defs>
<filter id="filter0_d_2525_1256" x="-7.84865" y="-3.73927" width="35.0742" height="30.7368" filterUnits="userSpaceOnUse" color-interpolation-filters="sRGB">
<feFlood flood-opacity="0" result="BackgroundImageFix"/>
<feColorMatrix in="SourceAlpha" type="matrix" values="0 0 0 0 0 0 0 0 0 0 0 0 0 0 0 0 0 0 127 0" result="hardAlpha"/>
<feOffset/>
<feGaussianBlur stdDeviation="4.167"/>
<feColorMatrix type="matrix" values="0 0 0 0 0 0 0 0 0 0 0 0 0 0 0 0 0 0 0.25 0"/>
<feBlend mode="overlay" in2="BackgroundImageFix" result="effect1_dropShadow_2525_1256"/>
<feBlend mode="normal" in="SourceGraphic" in2="effect1_dropShadow_2525_1256" result="shape"/>
</filter>
<filter id="filter1_d_2525_1256" x="4.81053" y="-8.18898" width="22.416" height="35.1866" filterUnits="userSpaceOnUse" color-interpolation-filters="sRGB">
<feFlood flood-opacity="0" result="BackgroundImageFix"/>
<feColorMatrix in="SourceAlpha" type="matrix" values="0 0 0 0 0 0 0 0 0 0 0 0 0 0 0 0 0 0 127 0" result="hardAlpha"/>
<feOffset/>
<feGaussianBlur stdDeviation="4.167"/>
<feColorMatrix type="matrix" values="0 0 0 0 0 0 0 0 0 0 0 0 0 0 0 0 0 0 0.25 0"/>
<feBlend mode="overlay" in2="BackgroundImageFix" result="effect1_dropShadow_2525_1256"/>
<feBlend mode="normal" in="SourceGraphic" in2="effect1_dropShadow_2525_1256" result="shape"/>
</filter>
<linearGradient id="paint0_linear_2525_1256" x1="9.68275" y1="0.145233" x2="9.68275" y2="18.6639" gradientUnits="userSpaceOnUse">
<stop/>
<stop offset="1" stop-color="white" stop-opacity="0"/>
</linearGradient>
</defs>
</svg>
