<svg width="18" height="19" viewBox="0 0 18 19" fill="none" xmlns="http://www.w3.org/2000/svg">
<path d="M10.3919 7.68493L11.8109 6.26693C11.2275 5.74562 10.5041 5.40682 9.73015 5.29247C8.9562 5.17812 8.1657 5.29325 7.45652 5.62359C6.74733 5.95394 6.15058 6.48501 5.74015 7.15105C5.32972 7.8171 5.12361 8.58889 5.14735 9.37088C5.17109 10.1529 5.42362 10.9107 5.8737 11.5507C6.32378 12.1906 6.95164 12.6845 7.67955 12.9712C8.40747 13.2579 9.20349 13.3249 9.96908 13.1638C10.7347 13.0027 11.4362 12.6207 11.9869 12.0649L10.6739 10.7519H10.4639C10.178 11.0029 9.82639 11.1672 9.4504 11.2254C9.07442 11.2836 8.68963 11.2334 8.34119 11.0806C7.99275 10.9278 7.69513 10.6788 7.48324 10.3628C7.27135 10.0468 7.15399 9.67692 7.14494 9.29656C7.13589 8.9162 7.23551 8.54116 7.43213 8.21543C7.62874 7.8897 7.91418 7.62682 8.25496 7.45762C8.59573 7.28843 8.9777 7.21994 9.35603 7.2602C9.73435 7.30047 10.0934 7.44781 10.3909 7.68493" fill="white"/>
<path fill-rule="evenodd" clip-rule="evenodd" d="M9 0.249023C10.1819 0.249023 11.3522 0.481815 12.4442 0.934108C13.5361 1.3864 14.5282 2.04934 15.364 2.88506C16.1997 3.72079 16.8626 4.71294 17.3149 5.80487C17.7672 6.8968 18 8.06713 18 9.24902C18 10.4309 17.7672 11.6012 17.3149 12.6932C16.8626 13.7851 16.1997 14.7773 15.364 15.613C14.5282 16.4487 13.5361 17.1116 12.4442 17.5639C11.3522 18.0162 10.1819 18.249 9 18.249C6.61305 18.249 4.32387 17.3008 2.63604 15.613C0.948212 13.9252 0 11.636 0 9.24902C0 6.86207 0.948212 4.57289 2.63604 2.88506C4.32387 1.19723 6.61305 0.249023 9 0.249023ZM9 2.24902C9.91925 2.24902 10.8295 2.43008 11.6788 2.78187C12.5281 3.13365 13.2997 3.64927 13.9497 4.29928C14.5998 4.94929 15.1154 5.72096 15.4672 6.57024C15.8189 7.41952 16 8.32977 16 9.24902C16 10.1683 15.8189 11.0785 15.4672 11.9278C15.1154 12.7771 14.5998 13.5488 13.9497 14.1988C13.2997 14.8488 12.5281 15.3644 11.6788 15.7162C10.8295 16.068 9.91925 16.249 9 16.249C7.14348 16.249 5.36301 15.5115 4.05025 14.1988C2.7375 12.886 2 11.1055 2 9.24902C2 7.39251 2.7375 5.61203 4.05025 4.29928C5.36301 2.98652 7.14348 2.24902 9 2.24902Z" fill="white"/>
</svg>
