<svg width="36" height="36" viewBox="0 0 36 36" fill="none" xmlns="http://www.w3.org/2000/svg">
<path d="M18.3696 0.516113C16.0689 0.516113 13.7906 0.980554 11.665 1.88292C9.53937 2.78528 7.60798 4.1079 5.9811 5.77525C2.69546 9.14262 0.849609 13.7098 0.849609 18.4719C0.849609 26.4084 5.87785 33.1418 12.8333 35.53C13.7093 35.6736 13.9896 35.117 13.9896 34.6322V31.5976C9.13657 32.675 8.10289 29.1916 8.10289 29.1916C7.29697 27.1087 6.15817 26.5521 6.15817 26.5521C4.56385 25.4388 6.28081 25.4747 6.28081 25.4747C8.03281 25.6004 8.96137 27.3242 8.96137 27.3242C10.4856 30.0534 13.0611 29.2454 14.0597 28.8145C14.2174 27.6474 14.6729 26.8573 15.1635 26.4084C11.274 25.9595 7.19185 24.4153 7.19185 17.5741C7.19185 15.581 7.85761 13.983 8.99641 12.7081C8.82121 12.2592 8.20801 10.3918 9.17161 7.96778C9.17161 7.96778 10.6433 7.48297 13.9896 9.79927C15.3737 9.40425 16.8804 9.20673 18.3696 9.20673C19.8588 9.20673 21.3655 9.40425 22.7496 9.79927C26.0959 7.48297 27.5676 7.96778 27.5676 7.96778C28.5312 10.3918 27.918 12.2592 27.7428 12.7081C28.8816 13.983 29.5474 15.581 29.5474 17.5741C29.5474 24.4333 25.4477 25.9416 21.5407 26.3905C22.1715 26.9471 22.7496 28.0424 22.7496 29.7123V34.6322C22.7496 35.117 23.0299 35.6916 23.9235 35.53C30.8789 33.1239 35.8896 26.4084 35.8896 18.4719C35.8896 16.1139 35.4364 13.779 34.556 11.6005C33.6755 9.42204 32.385 7.4426 30.7581 5.77525C29.1312 4.1079 27.1999 2.78528 25.0742 1.88292C22.9486 0.980554 20.6704 0.516113 18.3696 0.516113Z" fill="#448BEF"/>
</svg>
