<svg width="36" height="36" viewBox="0 0 36 36" fill="none" xmlns="http://www.w3.org/2000/svg">
<path d="M17.6821 0.0664062C8.00596 0.0664062 0.162109 7.91026 0.162109 17.5864C0.162109 27.2626 8.00596 35.1064 17.6821 35.1064C27.3583 35.1064 35.2021 27.2626 35.2021 17.5864C35.2021 7.91026 27.3583 0.0664062 17.6821 0.0664062ZM13.3934 24.8481H9.84556V13.4309H13.3934V24.8481ZM11.5976 12.0293C10.477 12.0293 9.75248 11.2354 9.75248 10.2536C9.75248 9.25163 10.4989 8.48148 11.6432 8.48148C12.7875 8.48148 13.4883 9.25163 13.5102 10.2536C13.5102 11.2354 12.7875 12.0293 11.5976 12.0293ZM26.3509 24.8481H22.8031V18.5208C22.8031 17.048 22.2884 16.0479 21.0054 16.0479C20.0254 16.0479 19.4432 16.725 19.1859 17.3765C19.091 17.6083 19.0673 17.9368 19.0673 18.2635V24.8463H15.5177V17.0718C15.5177 15.6464 15.472 14.4547 15.4246 13.4291H18.507L18.6694 15.015H18.7406C19.2078 14.2704 20.3521 13.1717 22.2665 13.1717C24.6007 13.1717 26.3509 14.7358 26.3509 18.0974V24.8481Z" fill="#448BEF"/>
</svg>
