<svg width="34" height="33" viewBox="0 0 34 33" fill="none" xmlns="http://www.w3.org/2000/svg">
<path d="M17.0009 0.0107422C8.04533 0.0107422 0.785645 7.26623 0.785645 16.2166C0.785645 25.1669 8.04533 32.4224 17.0009 32.4224C25.9564 32.4224 33.2161 25.1669 33.2161 16.2166C33.2161 7.26623 25.9564 0.0107422 17.0009 0.0107422ZM13.0315 22.9335H9.74793V12.3728H13.0315V22.9335ZM11.3694 11.0763C10.3324 11.0763 9.66179 10.342 9.66179 9.43376C9.66179 8.50698 10.3526 7.7946 11.4117 7.7946C12.4707 7.7946 13.1193 8.50698 13.1396 9.43376C13.1396 10.342 12.4707 11.0763 11.3694 11.0763ZM25.024 22.9335H21.7404V17.0809C21.7404 15.7186 21.2641 14.7935 20.0767 14.7935C19.1696 14.7935 18.6308 15.4198 18.3927 16.0224C18.3048 16.2368 18.2829 16.5407 18.2829 16.8429V22.9319H14.9976V15.7405C14.9976 14.4221 14.9554 13.3198 14.9115 12.3711H17.7643L17.9147 13.838H17.9805C18.4129 13.1493 19.472 12.133 21.2438 12.133C23.4042 12.133 25.024 13.5797 25.024 16.6892V22.9335Z" fill="#448BEF"/>
</svg>
