<svg width="55" height="46" viewBox="0 0 55 46" fill="none" xmlns="http://www.w3.org/2000/svg">
<g clip-path="url(#clip0_2518_153)">
<g clip-path="url(#clip1_2518_153)">
<g clip-path="url(#clip2_2518_153)">
<g clip-path="url(#clip3_2518_153)">
<g clip-path="url(#clip4_2518_153)">
<g clip-path="url(#clip5_2518_153)">
<path d="M17.5898 36.3936V8.68391H22.4605V32.7099H32.8159V36.3936H17.5898ZM35.681 36.3936V8.68391C35.872 8.68391 36.3086 8.67572 36.9907 8.65935C37.6729 8.64844 38.4369 8.64298 39.2828 8.64298C40.1287 8.64298 40.9746 8.6348 41.8205 8.61842C42.6664 8.60751 43.3622 8.60205 43.9079 8.60205C47.0732 8.60205 49.4799 9.22965 51.128 10.4848C52.7816 11.74 53.6084 13.5137 53.6084 15.8058C53.6084 17.1428 53.24 18.3434 52.5033 19.4076C51.7665 20.4718 50.7433 21.3313 49.4335 21.9862C51.0707 22.6138 52.3177 23.5006 53.1745 24.6467C54.0368 25.7927 54.4679 27.1161 54.4679 28.6169C54.4679 30.9636 53.5811 32.8518 51.8075 34.2816C50.0338 35.7169 47.3461 36.4346 43.7442 36.4346C43.0075 36.4346 42.2162 36.4346 41.3703 36.4346C40.5244 36.4346 39.7194 36.4291 38.9554 36.4182C38.1914 36.4018 37.5147 36.3936 36.9253 36.3936C36.3413 36.3936 35.9266 36.3936 35.681 36.3936ZM40.5517 23.9918V32.9146H44.0717C45.9272 32.9146 47.256 32.4971 48.0583 31.6621C48.866 30.8326 49.2698 29.7902 49.2698 28.535C49.2698 27.962 49.1798 27.4026 48.9997 26.8569C48.825 26.3112 48.5194 25.82 48.0828 25.3834C47.6462 24.9468 47.065 24.5976 46.3392 24.3356C45.6188 24.0791 44.7129 23.9509 43.6214 23.9509C42.9666 23.9509 42.3853 23.9509 41.8778 23.9509C41.3757 23.9509 40.9337 23.9645 40.5517 23.9918ZM40.5517 12.122V20.4718H43.7033C45.4224 20.4718 46.6503 20.0761 47.387 19.2848C48.1238 18.4935 48.4921 17.5248 48.4921 16.3788C48.4921 15.8603 48.4103 15.3419 48.2465 14.8234C48.0828 14.305 47.8018 13.8411 47.4034 13.4318C47.0105 13.0225 46.4784 12.6951 45.8071 12.4495C45.1413 12.2039 44.3036 12.0811 43.294 12.0811C42.6937 12.0811 42.167 12.0811 41.7141 12.0811C41.2666 12.0811 40.8791 12.0948 40.5517 12.122Z" fill="white"/>
</g>
</g>
</g>
</g>
</g>
</g>
<path d="M0 22.5182C0 10.0818 10.0818 0 22.5182 0C28.057 0 33.1287 1.99968 37.0508 5.31674H35.02C31.5111 2.76213 27.1907 1.25508 22.5182 1.2549C10.7749 1.2549 1.2549 10.7749 1.2549 22.5182C1.2549 34.2616 10.7749 43.7815 22.5182 43.7815C27.1907 43.7815 31.5111 42.2745 35.02 39.7197H37.0508C33.1287 43.0366 28.057 45.0364 22.5182 45.0364C10.0818 45.0364 0 34.9546 0 22.5182Z" fill="white"/>
<defs>
<clipPath id="clip0_2518_153">
<rect width="36.8781" height="27.8325" fill="white" transform="translate(17.5898 8.60205)"/>
</clipPath>
<clipPath id="clip1_2518_153">
<rect width="36.8781" height="27.8325" fill="white" transform="translate(17.5898 8.60205)"/>
</clipPath>
<clipPath id="clip2_2518_153">
<rect width="36.8781" height="27.8325" fill="white" transform="translate(17.5898 8.60205)"/>
</clipPath>
<clipPath id="clip3_2518_153">
<rect width="36.8781" height="27.8325" fill="white" transform="translate(17.5898 8.60205)"/>
</clipPath>
<clipPath id="clip4_2518_153">
<rect width="36.8781" height="27.8325" fill="white" transform="translate(17.5898 8.60205)"/>
</clipPath>
<clipPath id="clip5_2518_153">
<rect width="36.8781" height="27.8325" fill="white" transform="translate(17.5898 8.60205)"/>
</clipPath>
</defs>
</svg>
