<svg width="29" height="23" viewBox="0 0 29 23" fill="none" xmlns="http://www.w3.org/2000/svg">
<path fill-rule="evenodd" clip-rule="evenodd" d="M2.41039 2.23123C0.785644 3.85365 0.785645 6.46671 0.785645 11.6914C0.785645 16.9162 0.785644 19.5292 2.41039 21.1516C4.03375 22.7754 6.64832 22.7754 11.8761 22.7754H17.4213C22.649 22.7754 25.2636 22.7754 26.887 21.1516C28.5117 19.5292 28.5117 16.9162 28.5117 11.6914C28.5117 6.46671 28.5117 3.85365 26.887 2.23123C25.2636 0.607422 22.649 0.607422 17.4213 0.607422H11.8761C6.64832 0.607422 4.03375 0.607422 2.41039 2.23123ZM23.765 5.48439C23.9414 5.69607 24.0265 5.96911 24.0015 6.24347C23.9766 6.51782 23.8436 6.77105 23.6319 6.94748L20.5876 9.48294C19.358 10.5082 18.3626 11.3367 17.4823 11.902C16.5673 12.4909 15.6759 12.8622 14.6487 12.8622C13.6214 12.8622 12.73 12.4895 11.8137 11.902C10.9348 11.3367 9.93941 10.5068 8.70976 9.48433L5.66543 6.94886C5.45347 6.77248 5.3203 6.51917 5.29521 6.24466C5.27012 5.97015 5.35517 5.69692 5.53166 5.48508C5.70814 5.27324 5.96159 5.14014 6.23626 5.11507C6.51093 5.09 6.78432 5.175 6.99628 5.35138L9.9907 7.84389C11.2841 8.92043 12.1811 9.66583 12.9408 10.1535C13.6741 10.6246 14.1718 10.7839 14.6501 10.7839C15.1283 10.7839 15.626 10.626 16.3594 10.1535C17.1177 9.66583 18.016 8.92043 19.3094 7.84389L22.3025 5.34999C22.5144 5.17385 22.7878 5.08906 23.0623 5.11426C23.3368 5.13946 23.5887 5.2726 23.765 5.48439Z" fill="#448BEF"/>
</svg>
