<svg width="29" height="27" viewBox="0 0 29 27" fill="none" xmlns="http://www.w3.org/2000/svg">
<path d="M20.1273 17.043L19.4265 17.7403C19.4265 17.7403 17.7583 19.3968 13.2066 14.8739C8.65495 10.351 10.3231 8.6946 10.3231 8.6946L10.7637 8.25432C11.8527 7.17364 11.9559 5.43715 11.0055 4.16866L9.06468 1.57779C7.88787 0.00756501 5.61589 -0.200259 4.2681 1.13905L1.84979 3.54057C1.18283 4.20561 0.736132 5.06461 0.790044 6.01906C0.928673 8.46214 2.03463 13.7162 8.2021 19.8463C14.7439 26.3458 20.8821 26.6044 23.3913 26.3704C24.1861 26.2965 24.8761 25.8932 25.4322 25.339L27.6195 23.1653C29.0982 21.6982 28.6823 19.1812 26.7908 18.1544L23.8487 16.555C22.6072 15.8822 21.0977 16.0793 20.1273 17.043Z" fill="#448BEF"/>
</svg>
