<svg width="26" height="26" viewBox="0 0 26 26" fill="none" xmlns="http://www.w3.org/2000/svg">
<path d="M18.7536 15.7169C18.8564 14.8688 18.9335 14.0207 18.9335 13.1469C18.9335 12.2731 18.8564 11.425 18.7536 10.5769H23.0963C23.3018 11.3993 23.4303 12.2602 23.4303 13.1469C23.4303 14.0335 23.3018 14.8945 23.0963 15.7169M16.4795 22.8615C17.2504 21.4351 17.8414 19.8931 18.2525 18.2869H22.0427C20.798 20.4306 18.8231 22.0545 16.4795 22.8615ZM16.1583 15.7169H10.1454C10.0169 14.8688 9.9398 14.0207 9.9398 13.1469C9.9398 12.2731 10.0169 11.4121 10.1454 10.5769H16.1583C16.2739 11.4121 16.3639 12.2731 16.3639 13.1469C16.3639 14.0207 16.2739 14.8688 16.1583 15.7169ZM13.1518 23.3755C12.0854 21.8335 11.2246 20.1244 10.6978 18.2869H15.6058C15.079 20.1244 14.2182 21.8335 13.1518 23.3755ZM8.01258 8.00688H4.26093C5.49288 5.85735 7.46627 4.23089 9.81131 3.43228C9.04043 4.85863 8.46226 6.40063 8.01258 8.00688ZM4.26093 18.2869H8.01258C8.46226 19.8931 9.04043 21.4351 9.81131 22.8615C7.47119 22.0541 5.50057 20.4299 4.26093 18.2869ZM3.20738 15.7169C3.00181 14.8945 2.87333 14.0335 2.87333 13.1469C2.87333 12.2602 3.00181 11.3993 3.20738 10.5769H7.55005C7.44726 11.425 7.37017 12.2731 7.37017 13.1469C7.37017 14.0207 7.44726 14.8688 7.55005 15.7169M13.1518 2.90543C14.2182 4.44743 15.079 6.16933 15.6058 8.00688H10.6978C11.2246 6.16933 12.0854 4.44743 13.1518 2.90543ZM22.0427 8.00688H18.2525C17.8504 6.41535 17.255 4.87905 16.4795 3.43228C18.8435 4.24183 20.8093 5.87378 22.0427 8.00688ZM13.1518 0.296875C6.04682 0.296875 0.303711 6.07938 0.303711 13.1469C0.303711 16.5549 1.65735 19.8234 4.06684 22.2332C5.25989 23.4264 6.67626 24.373 8.23506 25.0187C9.79387 25.6645 11.4646 25.9969 13.1518 25.9969C16.5594 25.9969 19.8273 24.643 22.2368 22.2332C24.6463 19.8234 25.9999 16.5549 25.9999 13.1469C25.9999 11.4594 25.6676 9.78843 25.0219 8.22939C24.3763 6.67036 23.4299 5.25379 22.2368 4.06055C21.0438 2.86732 19.6274 1.9208 18.0686 1.27502C16.5098 0.62925 14.8391 0.296875 13.1518 0.296875Z" fill="#448BEF"/>
</svg>
